<?xml version="1.0" encoding="UTF-8"?>
<!DOCTYPE svg PUBLIC "-//W3C//DTD SVG 1.1//EN" "http://www.w3.org/Graphics/SVG/1.1/DTD/svg11.dtd">
<!-- Creator: CorelDRAW 2020 (64 Bit) -->
<svg xmlns="http://www.w3.org/2000/svg" xml:space="preserve" width="500px" height="500px" version="1.1" style="shape-rendering:geometricPrecision; text-rendering:geometricPrecision; image-rendering:optimizeQuality; fill-rule:evenodd; clip-rule:evenodd"
viewBox="0 0 500 500"
 xmlns:xlink="http://www.w3.org/1999/xlink"
 xmlns:xodm="http://www.corel.com/coreldraw/odm/2003">
 <defs>
  <style type="text/css">
   <![CDATA[
    .fil0 {fill:#253D4A}
   ]]>
  </style>
 </defs>
 <g id="Camada_x0020_1">
  <metadata id="CorelCorpID_0Corel-Layer"/>
  <g id="_2571191064016">
   <g>
    <path class="fil0 str0" d="M204.16 426.45c0,0 43.99,-59.74 37.97,-106.51 0,0 0.46,-19.92 -43.53,-18.53 0,0 -38.44,-0.46 -22.46,-40.98 0,0 48.16,-122.72 70.39,-151.9 0,0 11.11,-19.91 4.63,-23.85 0,0 -4.87,-8.1 -35.2,8.57 0,0 -80.47,54.87 -125.39,170.19 0,0 28.94,-79.66 30.1,-84.17 0,0 -0.69,-25.01 -15.51,-6.95 0,0 -42.61,73.98 -52.57,100.84 -9.96,26.86 -2.32,-0.69 -2.32,-0.69l3.25 -19.92c0,0 1.39,-18.06 -16.91,19.22 0,0 -39.13,106.97 -7.64,133.83 0,0 17.13,16.91 47.93,23.62 0,0 66.45,19.68 116.23,5.56 0,0 8.05,-4.23 9.27,-5.91l1.44 -1.91 0.32 -0.51z"/>
    <path class="fil0 str0" d="M138.6 135.79c0,0 17.83,-23.38 17.14,-16.9 -0.7,6.48 -0.7,6.48 -0.7,6.48 0,0 0,8.57 -6.02,13.66 -6.02,5.1 -6.94,8.57 -12.73,8.34 0,0 -5.27,-0.52 -2.78,-5.5l3.64 -4.69 1.45 -1.39z"/>
   </g>
   <g>
    <path class="fil0 str0" d="M439.41 426.45c0,0 43.99,-59.74 37.97,-106.51 0,0 0.46,-19.92 -43.53,-18.53 0,0 -38.44,-0.46 -22.46,-40.98 0,0 48.16,-122.72 70.39,-151.9 0,0 11.11,-19.91 4.63,-23.85 0,0 -4.86,-8.1 -35.2,8.57 0,0 -80.46,54.87 -125.39,170.19 0,0 28.95,-79.66 30.11,-84.17 0,0 -0.7,-25.01 -15.52,-6.95 0,0 -42.61,73.98 -52.57,100.84 -9.95,26.86 -2.31,-0.69 -2.31,-0.69l3.24 -19.92c0,0 1.39,-18.06 -16.9,19.22 0,0 -39.14,106.97 -7.65,133.83 0,0 17.13,16.91 47.93,23.62 0,0 66.45,19.68 116.24,5.56 0,0 8.04,-4.23 9.26,-5.91l1.45 -1.91 0.31 -0.51z"/>
    <path class="fil0 str0" d="M373.85 135.79c0,0 17.83,-23.38 17.14,-16.9 -0.7,6.48 -0.7,6.48 -0.7,6.48 0,0 0,8.57 -6.02,13.66 -6.02,5.1 -6.94,8.57 -12.73,8.34 0,0 -5.27,-0.52 -2.78,-5.5l3.65 -4.69 1.44 -1.39z"/>
   </g>
  </g>
 </g>
</svg>
