<?xml version="1.0" encoding="UTF-8"?>
<!DOCTYPE svg PUBLIC "-//W3C//DTD SVG 1.1//EN" "http://www.w3.org/Graphics/SVG/1.1/DTD/svg11.dtd">
<!-- Creator: CorelDRAW 2020 (64 Bit) -->
<svg xmlns="http://www.w3.org/2000/svg" xml:space="preserve" width="118px" height="118px" version="1.1" style="shape-rendering:geometricPrecision; text-rendering:geometricPrecision; image-rendering:optimizeQuality; fill-rule:evenodd; clip-rule:evenodd"
viewBox="0 0 118 118"
 xmlns:xlink="http://www.w3.org/1999/xlink"
 xmlns:xodm="http://www.corel.com/coreldraw/odm/2003">
 <defs>
  <style type="text/css">
   <![CDATA[
    .fil0 {fill:#253D4A}
}
   ]]>
  </style>
 </defs>
 <g id="Camada_x0020_1">
  <metadata id="CorelCorpID_0Corel-Layer"/>
  <g id="_2294968054768">
   <path class="fil0" d="M32.61 38.74c-0.03,-0.26 -0.2,-0.62 -0.28,-0.92 -0.25,-0.9 -0.32,-2.48 0.07,-3.15 0.37,1.82 0.4,3.09 1.46,4.49 0.64,0.85 1.19,1.43 1.97,2.19l2.92 2.49c0.86,0.54 1.1,0.78 2.28,1.34 7.89,3.76 17.4,-0.94 25.71,1.64 2.36,0.73 4.18,2.04 5.64,3.93 2.36,3.04 1.89,7.62 -1.28,10.02 -0.53,0.4 -2.47,1.69 -3.05,1.67 0.1,-0.04 0.81,-1 0.98,-1.27 2.95,-4.38 0.76,-8.22 -4.11,-9.99 -2.85,-1.03 -5.26,-0.86 -8.42,-1.07 -7.12,-0.46 -14.63,-1.58 -20.51,-5.72 -2.3,-1.62 -4.43,-3.83 -5.49,-6.47 -1.07,-2.66 -0.75,-5.4 0.01,-8.11 0.21,1.45 -0.7,3.68 0.93,7.22 0.2,0.42 0.94,1.49 1.17,1.71z"/>
   <path class="fil0" d="M92.36 46.51c-0.49,-0.25 -0.79,-0.53 -1.55,-0.5 -0.29,0.02 -1.46,0.26 -1.67,0.36 0.62,0.31 1.84,0.04 2.52,-0.05 -0.14,0.33 -0.78,0.79 -1.15,0.95 -0.6,0.26 -1.23,0.23 -1.9,0.27 -0.26,0.31 -0.7,1.36 -1.68,2.1 -0.21,0.16 -0.52,0.43 -0.7,0.64 -0.83,0.92 -1.17,2.53 -1.05,4.18 0.24,3.4 1.32,5.7 0.65,9.34 -0.99,5.35 -5.51,9.38 -9.45,11.42 -8.95,4.63 -17.56,0.64 -25.61,5.69 -1.16,0.73 -2.11,1.47 -2.94,2.28 -0.42,0.41 -0.81,0.86 -1.23,1.37 -0.36,0.42 -0.8,0.99 -1.12,1.46 0.09,-1.19 0.98,-4.35 1.37,-5.55 0.59,-1.8 1.29,-3.43 2.12,-4.91 0.86,-1.55 1.83,-2.85 3.01,-4.01 0.89,-0.87 2.8,-2.35 4.28,-2.79 -0.06,0.05 -0.05,0.06 -0.12,0.11l-0.82 0.6c-0.49,0.37 -0.91,0.71 -1.33,1.15 -0.67,0.7 -0.45,0.37 -1.16,1.38 -0.42,0.61 -2.22,3.92 -1.54,4.79 0.69,0.87 4.57,-0.05 5.69,-0.24 4.95,-0.81 8.25,-0.06 12.56,-0.69 2.51,-0.37 5.22,-1.32 7.22,-2.68 0.69,-0.46 1.26,-0.89 1.88,-1.46 3.85,-3.56 6.29,-8.21 5.75,-14.05 -0.19,-2.08 -0.53,-3.97 0.11,-5.98 0.63,-2.01 1.75,-2.67 2.27,-4.35 1.25,-4.05 -2.56,-4.97 -4.82,-4.15 -2.95,1.09 -2.94,4.8 -3.59,6.37 -0.4,0.95 -0.77,1.41 -1.36,2 -0.39,0.39 -1.42,1.19 -1.97,1.38 0.1,-0.22 0.7,-0.88 0.93,-1.16 0.26,-0.34 0.61,-0.88 0.84,-1.3 1.5,-2.7 0.42,-3.19 2.28,-6.22 0.59,-0.96 1.14,-1.59 2.11,-2.17 2.35,-1.39 5.44,-0.79 6.9,1.18 0.15,0.21 0.28,0.47 0.44,0.63 0.8,0.78 2.21,0.77 2.96,1.32 0.36,0.28 0.7,0.7 0.87,1.29z"/>
   <path class="fil0" d="M74.09 53.06c0.32,-0.92 0.63,-1.42 0.51,-2.64 -0.08,-0.93 -0.43,-1.81 -0.82,-2.48 -0.93,-1.59 -2.13,-2.71 -3.5,-3.86 -3.03,-2.52 -8.61,-4.91 -11.43,-7.29 -2.99,-2.51 -6.49,-7.58 -5.86,-11.88 0.04,-0.28 0.33,-1.19 0.33,-1.25 0.05,0.59 -0.27,1.17 -0.03,2.5 0.11,0.63 0.4,1.71 0.72,2.09 -0.08,-1.77 -0.31,-2.67 0.37,-4.34 0.48,-1.2 1.34,-2.1 2.22,-2.69 -0.21,0.74 -0.55,1.07 -0.83,2.47 -0.69,3.44 0.65,6.99 2.83,9.47 0.91,1.04 0.96,1.12 2.08,2.2 1.43,1.38 4.3,3.28 6.04,4.13 1.43,0.69 3.18,1.46 4.43,2.39 0.65,0.48 1.38,1.05 1.83,1.58 1.03,1.21 1.86,2.45 2.35,4.48 0.23,0.97 0.31,2.03 0.09,3.04 -0.19,0.89 -0.75,1.79 -1.33,2.08z"/>
   <path class="fil0" d="M39.16 76.77c-0.96,0.06 -4.06,-0.24 -5.47,-0.3 -1.97,-0.09 -1.75,0.63 -0.76,1.77 1.06,1.22 3.37,0.5 4.88,0.35 -0.29,0.29 -2.06,1.42 -1.73,2.66 0.63,0.34 2.32,-0.52 2.93,-0.8 2.26,-1.02 4.51,-2.15 6.77,-3.13 0.39,-0.17 1.05,-0.51 1.43,-0.59 -0.27,0.24 -2.08,1.2 -2.66,1.57 -1.15,0.74 -1.43,0.96 -2.48,1.74 -0.21,0.15 -0.33,0.26 -0.55,0.45 -1.25,1.02 -2.89,2.42 -4.11,3.31 -0.68,0.5 -1.94,1.2 -3.06,1.2 -1.33,-0.01 -2.15,-0.88 -2.67,-1.58 -0.94,-1.26 -0.33,-1.9 0.8,-2.47 0.47,-0.23 0.98,-0.48 1.47,-0.67l1.5 -0.67c-0.18,0.01 -1.94,0.55 -2.67,0.69 -1.24,0.24 -2,-0.11 -2.54,-0.79 -0.22,-0.28 -4.01,-7.24 1.04,-4.98 0.78,0.35 1.58,0.71 2.39,1.02 1.69,0.65 3.63,0.89 5.49,1.22z"/>
   <path class="fil0" d="M64.11 59.13c0.18,-0.23 0.64,-0.36 0.93,-1.01 0.6,-1.33 -0.71,-2.8 -2.14,-3.37 -1.87,-0.75 -4.52,-0.77 -6.67,-1.09 -5.03,-0.75 -7.53,-1.48 -12.02,-3.52l3.33 0.97c3.65,0.93 8.31,1.11 12.1,1.16 2.78,0.05 5.55,0.21 6.89,1.92 1.48,1.88 0.75,4.7 -2.42,4.94z"/>
   <path class="fil0" d="M29.55 70.8c0.32,0.1 1.57,0.68 2.43,0.95 0.89,0.29 1.79,0.56 2.71,0.77 5.1,1.15 11.48,1.43 16.18,-1.22 0.41,-0.23 0.72,-0.49 1.08,-0.66l-1.85 2.04c-1.19,1.52 -0.44,1.16 -2.17,1.7 -4.98,1.57 -11.56,0.63 -16.11,-1.93 -0.68,-0.38 -1.9,-1.2 -2.27,-1.65z"/>
   <path class="fil0" d="M43.95 54.13c-1.1,-0.03 -5.23,-0.57 -6.44,-0.76 -1.99,-0.32 -3.94,-0.76 -5.68,-1.47 -2.79,-1.16 -4.83,-3.04 -4.72,-6.07 0.03,-0.86 0.32,-2.38 0.7,-2.96 0.37,3.07 1.35,4.92 3.65,6.59 3.2,2.32 8.16,3.39 12.14,4.51l0.35 0.16z"/>
   <path class="fil0" d="M42.25 58.81c1.73,0 3.45,-0.25 5.1,-0.72 0.51,-0.14 1.01,-0.36 1.47,-0.47 -0.94,0.82 -4.13,1.58 -5.45,1.84 -3.68,0.73 -9.11,0.5 -11.99,-1.95 -0.73,-0.62 -1.1,-1.03 -1.62,-2.07 -0.37,-0.72 -0.71,-2.08 -0.59,-3.03 0.34,0.41 0.75,0.98 1.07,1.29 0.28,0.27 0.4,0.38 0.61,0.59 0.65,0.62 1.22,1.14 2.01,1.67 2.63,1.77 5.87,2.85 9.39,2.85z"/>
   <path class="fil0" d="M56.47 43.74c-1.17,0.04 -3.78,-0.79 -4.92,-1.39 -1.19,-0.63 -2.62,-2.02 -3.05,-3.32 0.47,0.44 0.99,1 1.7,1.39 0.48,0.26 1.73,0.75 2.29,0.84 -0.99,-0.74 -1.24,-0.69 -2.15,-1.78 -1.45,-1.72 -1.91,-3.76 -1.68,-6.11 0.07,-0.79 0.38,-2.72 0.67,-3.32 0.27,1.62 0.07,2.37 0.65,4.57 0.58,2.22 1.82,4.21 3.31,5.79l1.9 2.05c0.2,0.23 0.41,0.41 0.64,0.63 0.24,0.23 0.42,0.44 0.64,0.65z"/>
   <path class="fil0" d="M43.07 86c0.01,0.19 -0.28,1.31 -0.37,1.56 -0.2,0.54 -0.46,0.82 -1.18,0.82 -1.05,-0.01 -2.56,-0.35 -3.2,-0.89 -1.16,-0.98 0.8,-3.03 1.55,-3.83 0.33,-0.36 0.63,-0.78 0.99,-1.11 -0.25,0.66 -1.35,2.09 -1.14,2.86 0.25,0.92 1.68,0.78 2.57,-0.21 0.61,-0.68 1.16,-1.48 1.73,-2.28 0.46,-0.65 1.34,-1.86 1.86,-2.18 -0.36,1.83 -1.04,2.38 -0.9,5.1 0.05,0.94 0.46,1.83 -0.75,1.98 -1.06,0.13 -1.02,-0.92 -1.16,-1.82z"/>
   <path class="fil0" d="M44.26 62.46c0.99,0 1.35,-0.21 2.13,-0.35 -0.38,0.26 -1.25,0.73 -1.18,1.3 0.84,0.65 3.31,-0.22 4.15,-0.56 0.6,-0.25 1.21,-0.52 1.72,-0.83l1.59 -1.01 -1.17 1.03c-2.11,1.58 -4.99,3.81 -7.91,3.06 -0.97,-0.25 -2.22,-1.2 -2.54,-1.94 0.21,-0.06 0.47,-0.15 0.63,-0.3 -0.98,-0.09 -2.13,-0.45 -2.72,-0.97 -1.16,-1.02 0.84,-1.3 1.71,-1.17 -0.32,0.11 -0.6,0.55 -0.23,0.83 0.23,0.17 0.75,0.36 1.08,0.47 0.73,0.23 1.91,0.44 2.74,0.44z"/>
   <path class="fil0" d="M41.28 49.21c-0.32,-0.04 -0.9,-0.25 -1.25,-0.36 -5.45,-1.75 -12.69,-3.11 -11.96,-10.38 0.08,-0.73 0.32,-2.38 0.66,-2.83 0.06,3.79 0.66,7.06 3.84,9.23 2.29,1.57 5.02,2.65 7.61,3.83 0.25,0.12 0.93,0.46 1.1,0.51z"/>
   <path class="fil0" d="M58.35 38.94c-0.9,-0.43 -3.19,-1.98 -4,-2.67 -1.75,-1.49 -3.32,-3.16 -3.7,-5.67 -0.22,-1.48 0.2,-3.32 0.81,-4.42 0.31,1.38 0.21,2.31 0.77,4.12 0.74,2.42 2.02,4.39 3.73,6.1l0.86 0.95c0.12,0.12 0.23,0.19 0.35,0.32 0.38,0.4 0.86,0.86 1.18,1.27z"/>
   <path class="fil0" d="M56.74 68.19l0.07 -0.08c0.25,-0.22 0.95,-0.58 1.23,-1.01 -0.86,0.35 -1.37,0.73 -2.55,0.73 -0.85,0 -1.97,-0.32 -2.46,-0.78 2.47,0.38 4.09,-0.38 5.73,-1.5 1.85,-1.26 2.48,-2.18 3.68,-3.79 0,1.28 -1,3.65 -1.62,4.38 -0.91,1.08 -2,1.94 -4.08,2.05z"/>
   <path class="fil0" d="M46.55 65.25c2.81,2.33 6.57,0.27 8.99,-1.72l2.24 -2.06c-0.24,0.52 -0.66,1.05 -0.98,1.45l-0.53 0.68c-0.75,0.94 -2.18,2.22 -3.3,2.91 -0.9,0.56 -2.38,1.24 -3.76,1 -1.24,-0.22 -2.55,-1.54 -2.66,-2.26z"/>
   <path class="fil0" d="M97.37 58.01c-0.33,-0.29 -0.69,-0.73 -1,-1.08 -1.24,-1.41 -1.51,-2.9 -0.2,-4.34 1.09,0.15 2.03,0.94 2.15,2.07 0.1,0.87 -0.5,2.9 -0.95,3.35z"/>
   <path class="fil0" d="M92.34 53.97c-1.7,-1.68 -1.51,-5.19 0.82,-5.19 0.88,0 1.52,1.62 0.73,2.6 -0.83,1.01 -1.19,0.8 -1.55,2.59z"/>
   <path class="fil0" d="M100.99 48.31c-0.03,0.02 -0.03,0.03 -0.12,0.08 -0.52,0.27 -0.47,0.08 -1.13,0.75 -0.29,0.3 -0.66,0.69 -1.27,0.8 -1.13,0.19 -2.46,-0.52 -2.96,-1.1 0.28,-0.82 1.36,-1.59 2.46,-1.62 1.11,-0.03 2.32,0.57 3.02,1.09z"/>
   <path class="fil0" d="M55.02 45.15c-1.36,0.28 -2.88,0.15 -3.9,-0.5 -0.7,-0.44 -1.68,-1.76 -1.64,-3.01 0.59,0.5 0.92,1.21 2.37,2.15 0.45,0.3 0.96,0.55 1.5,0.77 0.38,0.15 1.43,0.45 1.67,0.59z"/>
   <path class="fil0" d="M96.13 52.24c-0.26,-1.2 -1.28,-2.9 -2.38,-3.66 -0.73,-0.49 -1.61,-0.98 -2.38,-1.37 0.17,-0.18 0.35,-0.3 0.49,-0.54 0.97,0.12 2.29,1.37 2.9,2.03 0.61,0.65 1.45,2.26 1.37,3.54z"/>
   <path class="fil0" d="M84.66 44.06c1.11,0.46 0.51,2.18 -0.68,1.78 -1.13,-0.37 -0.58,-2.3 0.68,-1.78z"/>
  </g>
 </g>
</svg>
