<?xml version="1.0" encoding="UTF-8"?>
<!DOCTYPE svg PUBLIC "-//W3C//DTD SVG 1.1//EN" "http://www.w3.org/Graphics/SVG/1.1/DTD/svg11.dtd">
<!-- Creator: CorelDRAW 2020 (64 Bit) -->
<svg xmlns="http://www.w3.org/2000/svg" xml:space="preserve" width="200px" height="200px" version="1.1" style="shape-rendering:geometricPrecision; text-rendering:geometricPrecision; image-rendering:optimizeQuality; fill-rule:evenodd; clip-rule:evenodd"
viewBox="0 0 200 200"
 xmlns:xlink="http://www.w3.org/1999/xlink"
 xmlns:xodm="http://www.corel.com/coreldraw/odm/2003">
 <defs>
  <style type="text/css">
   <![CDATA[
    .fil0 {fill:#a7c4d2}
   ]]>
  </style>
 </defs>
 <g id="Camada_x0020_1">
  <metadata id="CorelCorpID_0Corel-Layer"/>
  <g id="_2570979768064">
   <path class="fil0" d="M30.05 103.25l0 6.17c0,22.15 13.34,43.59 30.43,55.45 2.65,1.84 4.88,2.96 7.72,4.49 0,-5.65 0.43,-37.09 -0.26,-39.85 -2.63,-10.53 -13.61,-8.81 -13.61,-26.7l0 -27.76c0,-2.67 8.92,-11.02 10.4,-11.02 2.08,0 5.21,4.55 6.93,5.73 1.73,-1.18 4.86,-5.73 6.94,-5.73 2.08,0 5.21,4.55 6.93,5.73 1.73,-1.18 4.86,-5.73 6.94,-5.73 1.5,0 10.4,8.37 10.4,11.02l0 28.2c0,18.52 -13.87,16.74 -13.87,28.65l0 43.19c0,1.91 1.79,1.22 3.77,1.46 4.43,0.52 9.27,0.36 13.66,-0.05 4.46,-0.41 3.38,2 3.38,-14.63 0,-11.54 -0.37,-93.13 0.16,-95.03 1.6,-5.65 13.67,-1.07 17.18,0.71 20.78,10.61 17.33,31.41 17.33,52.45 0,6.87 -8.86,0.53 -13.15,10.42 -1,2.32 -0.72,4.15 -0.72,7.21 0.02,10.57 0,21.15 0,31.73 11.37,-6.12 18.26,-11.81 26.01,-22.92 5.65,-8.11 12.13,-23.19 12.13,-37.02 0,-12.75 -1.18,-22.34 -6.5,-33.05 -4.15,-8.37 -7.13,-13.2 -13.76,-19.94 -11.66,-11.86 -29.3,-20.61 -46.49,-20.61 -12.07,0 -21.89,1.39 -31.78,6.46 -5.99,3.07 -12.59,7.07 -17.52,11.72 -0.83,0.77 -1.36,1.39 -2.17,2.21 -11.54,11.74 -20.48,29.47 -20.48,47.04z"/>
   <path class="fil0" d="M9.25 102.81c0,14.51 0.85,23.62 6,36.65 7.51,18.95 16.98,30.37 32.64,42.17 4.61,3.48 15.5,9.51 20.31,10.65l0 -15.43c-19.27,-9.4 -33.95,-24.34 -40.81,-45.33 -4.55,-13.94 -5.63,-27.21 -2.28,-42.11 1.54,-6.82 4.42,-15.23 7.89,-21.06 8.49,-14.29 19.57,-25.64 34.77,-32.52 20.86,-9.45 42.08,-9.23 62.97,-0.13 8.4,3.66 16.12,9.37 22.52,15.88l4.56 5.06c7.84,9.13 13,20.45 15.79,32.42 5.08,21.77 0.33,43.15 -11.7,61.44 -4.92,7.48 -7.76,9.64 -13.64,15.22 -2.68,2.56 -13.94,10.25 -17.66,11.13l0 15.43c6.25,-1.48 17.38,-8.39 22.61,-12.28 20.72,-15.4 36.34,-43.42 36.34,-70.14 0,-10.02 -0.03,-16.46 -2.69,-26.35 -5.92,-22.09 -17.09,-38.43 -35.39,-52.16 -2.05,-1.54 -4.41,-3.05 -6.59,-4.32 -7.17,-4.17 -14.99,-7.6 -23.03,-9.63 -14.82,-3.73 -29.8,-3.71 -44.57,-0.09 -8.34,2.04 -15.73,5.39 -23.1,9.56 -25.68,14.53 -44.94,45.95 -44.94,75.94z"/>
   <path class="fil0" d="M61.26 76.37l0 29.53c0,1.95 1.1,4.64 1.9,6 2.71,4.6 8.16,5.97 10.63,13.87 2.46,7.9 1.34,21.21 1.34,31.25l-0.02 34.59c0,6.77 6.89,6.46 6.98,0.45l-0.02 -34.6c0,-12.39 -2.09,-28.54 3.83,-36.65 3.95,-5.42 10.04,-7.92 10.04,-14.91l0 -29.53c0,-1.26 -2.6,-3.37 -3.47,-3.97 -0.87,0.6 -3.47,2.71 -3.47,3.97l0 26.44 -6.93 0 0 -26.44c0,-1.26 -2.6,-3.37 -3.47,-3.97 -0.87,0.6 -3.47,2.71 -3.47,3.97l0 26.44 -6.93 0 0 -26.44c0,-1.26 -2.6,-3.37 -3.47,-3.97 -0.87,0.6 -3.47,2.71 -3.47,3.97z"/>
   <path class="fil0" d="M120.21 194.42c4.71,0 3.47,-6.16 3.47,-11.02 0,-7.97 -0.32,-46.75 0.1,-50.07 1.06,-8.35 5.92,-14.12 13.77,-15.97 0,-9.07 1.08,-23.96 -1.91,-31.56 -4.88,-12.43 -17.13,-13.86 -18.9,-14.72 0,46.77 0.39,70.47 0,117.18 -0.03,3.56 0.02,6.16 3.47,6.16z"/>
   <path class="fil0" d="M89 197.56l13.44 0.45c3.14,0 4.34,-0.45 7.37,-0.45l0 -14.54c-3.16,0 -7.03,0.88 -10.41,0.88 -3.37,0 -7.25,-0.88 -10.4,-0.88l0 14.54z"/>
  </g>
 </g>
</svg>
