<?xml version="1.0" encoding="UTF-8"?>
<!DOCTYPE svg PUBLIC "-//W3C//DTD SVG 1.1//EN" "http://www.w3.org/Graphics/SVG/1.1/DTD/svg11.dtd">
<!-- Creator: CorelDRAW 2020 (64 Bit) -->
<svg xmlns="http://www.w3.org/2000/svg" xml:space="preserve" width="200px" height="200px" version="1.1" style="shape-rendering:geometricPrecision; text-rendering:geometricPrecision; image-rendering:optimizeQuality; fill-rule:evenodd; clip-rule:evenodd"
viewBox="0 0 200 200"
 xmlns:xlink="http://www.w3.org/1999/xlink"
 xmlns:xodm="http://www.corel.com/coreldraw/odm/2003">
 <defs>
  <style type="text/css">
   <![CDATA[
    .fil0 {fill:#253D4A}
   ]]>
  </style>
 </defs>
 <g id="Camada_x0020_1">
  <metadata id="CorelCorpID_0Corel-Layer"/>
  <g id="_2571005853600">
   <path class="fil0" d="M26.69 50.74l77.02 50.75c0.71,0 8.19,-5.33 9.57,-6.14l67.46 -44.61c0,-3.18 -4.08,-8.16 -8.46,-8.16l-137.14 0c-4.36,0 -8.45,4.94 -8.45,8.16z"/>
   <path class="fil0" d="M26.69 140.45c0.09,4.06 4.32,8.46 8.45,8.46l137.14 0c4.14,0 8.37,-4.4 8.46,-8.46l-4.78 -2.77c-10.93,-7.02 -22.82,-14.22 -33.46,-21.21l-9.43 -5.98c-1.69,-1.06 -3.16,-1.94 -4.83,-3.02 -1.62,-1.05 -3.13,-2.07 -4.8,-3.06 -4.14,-2.44 -1.74,-3.37 -12.06,3.54 -6.94,4.64 -6.89,5.63 -12.8,1.69l-9.48 -6.23c-2.46,-1.7 -1.72,-1 -4.93,0.89l-45.34 28.66c-0.89,0.57 -1.43,0.99 -2.38,1.55 -1.39,0.82 -8.53,5.61 -9.76,5.94z"/>
   <path class="fil0" d="M26.38 129.58l42.42 -26.76c1.54,-1.01 9.21,-5.61 9.84,-6.47 -1.63,-0.44 -42.78,-28.37 -48.92,-32.03 -1.15,-0.69 -2.1,-1.45 -3.34,-2.1l0 67.36z"/>
   <path class="fil0" d="M128.78 96.35c0.61,0.83 2.09,1.5 3.02,2.11l16.3 10.29c1.13,0.67 2.14,1.4 3.32,2.11 8.39,5.02 17.76,11.51 26.28,16.62 1.04,0.62 2.32,1.41 3.34,2.1l0 -67.36 -32.5 21.26c-1.74,1.16 -18.66,12.58 -19.76,12.87z"/>
  </g>
 </g>
</svg>
