<?xml version="1.0" encoding="UTF-8"?>
<!DOCTYPE svg PUBLIC "-//W3C//DTD SVG 1.1//EN" "http://www.w3.org/Graphics/SVG/1.1/DTD/svg11.dtd">
<!-- Creator: CorelDRAW 2020 (64 Bit) -->
<svg xmlns="http://www.w3.org/2000/svg" xml:space="preserve" width="50px" height="50px" version="1.1" style="shape-rendering:geometricPrecision; text-rendering:geometricPrecision; image-rendering:optimizeQuality; fill-rule:evenodd; clip-rule:evenodd"
viewBox="0 0 50 50"
 xmlns:xlink="http://www.w3.org/1999/xlink"
 xmlns:xodm="http://www.corel.com/coreldraw/odm/2003">
 <defs>
  <style type="text/css">
   <![CDATA[
    .fil0 {fill:#253d4a}
   ]]>
  </style>
 </defs>
 <g id="Camada_x0020_1">
  <metadata id="CorelCorpID_0Corel-Layer"/>
  <path class="fil0" d="M16.17 20.64c0.06,-0.06 -0.01,-0.07 0.31,-0.08l5.27 0.02c-0.05,-0.58 -0.07,-5.19 0.05,-5.41 -0.04,-1.54 0.52,-3.14 1.15,-4.23 1.43,-2.52 4.11,-3.64 7.03,-3.67 1.64,-0.02 3.5,0.05 5.11,0.25l-0.01 5.79c-1.08,0.08 -2.4,0 -3.52,0.01 -2.94,0.03 -3.11,1.53 -3.11,3.84 0,0.71 -0.09,2.91 0.03,3.44l6.38 0 -0.83 6.48 -5.55 0c-0.15,0.7 -0.03,3.26 -0.03,4.15 0,1.69 0.06,11.69 -0.02,12.46l-6.66 0 -0.01 -16.61 -5.59 -0.01 0 -6.43zm32.12 22.76c0.15,-0.96 0.05,-31.91 0.05,-34 0,-1.95 0.21,-3.39 -0.76,-4.91 -0.66,-1.03 -1.82,-2.01 -3.46,-2.24 -0.94,-0.13 -31.94,-0.04 -34.01,-0.04 -1.99,0 -3.34,-0.21 -4.91,0.76 -1.01,0.63 -2,1.84 -2.23,3.45 -0.15,1 -0.05,31.9 -0.05,34.02 0,1.94 -0.2,3.4 0.76,4.91 0.65,1.01 1.84,2.01 3.46,2.23 1,0.13 31.89,0.04 34.01,0.04 2,0 3.34,0.22 4.91,-0.76 1.06,-0.66 2,-1.85 2.23,-3.46z"/>
 </g>
</svg>
