<?xml version="1.0" encoding="UTF-8"?>
<!DOCTYPE svg PUBLIC "-//W3C//DTD SVG 1.1//EN" "http://www.w3.org/Graphics/SVG/1.1/DTD/svg11.dtd">
<!-- Creator: CorelDRAW 2020 (64 Bit) -->
<svg xmlns="http://www.w3.org/2000/svg" xml:space="preserve" width="80px" height="80px" version="1.1" style="shape-rendering:geometricPrecision; text-rendering:geometricPrecision; image-rendering:optimizeQuality; fill-rule:evenodd; clip-rule:evenodd"
viewBox="0 0 80 80"
 xmlns:xlink="http://www.w3.org/1999/xlink"
 xmlns:xodm="http://www.corel.com/coreldraw/odm/2003">
 <defs>
  <style type="text/css">
   <![CDATA[
    .fil0 {fill:#a7c4d2}
   ]]>
  </style>
 </defs>
 <g id="Camada_x0020_1">
  <metadata id="CorelCorpID_0Corel-Layer"/>
  <path class="fil0" d="M39.71 1.59c21.36,0 38.67,17.31 38.67,38.67 0,21.35 -17.31,38.66 -38.67,38.66 -21.35,0 -38.66,-17.31 -38.66,-38.66 0,-21.36 17.31,-38.67 38.66,-38.67zm17.86 61.47l-17.86 -17.86 -17.86 17.86c-1.36,1.36 -3.58,1.36 -4.94,0l0 0c-1.36,-1.36 -1.36,-3.58 0,-4.94l17.86 -17.86 -17.86 -17.86c-1.36,-1.37 -1.36,-3.59 0,-4.95l0 0c1.36,-1.36 3.58,-1.36 4.94,0l17.86 17.86 17.86 -17.86c1.36,-1.36 3.59,-1.36 4.95,0l0 0c1.36,1.36 1.36,3.58 0,4.95l-17.86 17.86 17.86 17.86c1.36,1.36 1.36,3.58 0,4.94l0 0c-1.36,1.36 -3.59,1.36 -4.95,0z"/>
 </g>
</svg>
