<?xml version="1.0" encoding="UTF-8"?>
<!DOCTYPE svg PUBLIC "-//W3C//DTD SVG 1.1//EN" "http://www.w3.org/Graphics/SVG/1.1/DTD/svg11.dtd">
<!-- Creator: CorelDRAW 2020 (64 Bit) -->
<svg xmlns="http://www.w3.org/2000/svg" xml:space="preserve" width="200px" height="210px" version="1.1" style="shape-rendering:geometricPrecision; text-rendering:geometricPrecision; image-rendering:optimizeQuality; fill-rule:evenodd; clip-rule:evenodd"
viewBox="0 0 200 210"
 xmlns:xlink="http://www.w3.org/1999/xlink"
 xmlns:xodm="http://www.corel.com/coreldraw/odm/2003">
 <defs>
  <style type="text/css">
   <![CDATA[
    .fil0 {fill:#253D4A}
   ]]>
  </style>
 </defs>
 <g id="Camada_x0020_1">
  <metadata id="CorelCorpID_0Corel-Layer"/>
  <path class="fil0" d="M133.49 169.82l0 0zm-63.18 0l0 0zm63.18 0l3.56 -4.25c3.57,-4.56 6.32,-10.11 7.89,-15.89 4.41,-16.29 -4.52,-32.73 14.88,-48.31 2.52,-2.02 7.02,-4.43 10.42,-5.57 4.03,-1.35 8.62,-1.81 14.17,-1.81 -0.39,4.67 -0.74,10.01 -1.43,14.18 -3.21,19.47 -14.26,37.76 -29.37,49.8 -4.29,3.41 -14.84,10.61 -20.12,11.85zm-63.18 0c-6.34,-1.48 -23.4,-13.16 -28.04,-19.18l-3.67 -4.13c-8.76,-10.41 -15.42,-24.01 -17.73,-38.02 -0.76,-4.59 -1.07,-9.48 -1.48,-14.5 13.59,0 18.71,3.02 26.39,8.92 4.82,3.72 8.88,11.19 10.53,17.34 2.25,8.34 -0.42,17.58 2.47,29.12 1.67,6.68 5.08,13.26 9.58,18.3 0.79,0.89 1.29,1.16 1.95,2.15zm88.82 -101.1c0,-3.68 2.63,-6.32 5.95,-6.32l23.05 0c3.11,0 2.6,6.12 2.6,8.18 0,2.21 -0.72,4.09 -2.98,4.09l-23.41 0c-2.74,0 -5.21,-3.04 -5.21,-5.95zm-119.67 5.95l-23.42 0c-3.66,0 -2.97,-4.82 -2.97,-8.18 0,-1.79 1.02,-4.09 2.6,-4.09l23.04 0c8.18,0 7.3,12.27 0.75,12.27zm-20.07 -33.45c0,-5.42 3.53,-4.09 12.63,-4.09 0,5.85 -1.26,12.64 3.35,12.64 0.79,0 2.01,-0.7 2.45,-1.27 1.39,-1.75 0.89,-8.49 0.89,-11.37l12.27 0c0,4.9 -1.21,12.64 3.34,12.64 4.55,0 3.35,-7.74 3.35,-12.64l12.26 0c0,4.51 -1.23,12.64 3.35,12.64 4.6,0 3.34,-7.16 3.34,-12.64l12.64 0c0,6.33 -1.33,12.77 3.3,12.54 4.23,-0.21 3.02,-6.61 3.02,-12.54l12.64 0c0,6.04 -1.17,11.92 2.72,12.51 1.45,0.21 3.59,-1.09 3.59,-2.48l0 -10.03 12.64 0c0,5.85 -1.26,12.64 3.35,12.64 0.79,0 2,-0.7 2.45,-1.27 1.39,-1.75 0.89,-8.49 0.89,-11.37l12.27 0c0,4.9 -1.21,12.64 3.34,12.64 4.55,0 3.35,-7.74 3.35,-12.64l12.26 0c0,4.51 -1.23,12.64 3.35,12.64 4.59,0 3.34,-7.16 3.34,-12.64 15.03,0 12.64,-2.97 12.64,18.58 -5.54,0 -19.88,-0.7 -23.91,1 -13.1,5.5 -8.84,24.65 4.58,24.65l19.33 0 0 5.94c-3.11,0 -6.92,0.34 -9.69,0.72 -5.9,0.81 -13.83,4.07 -18.28,7.74 -2.8,2.32 -5.85,5.02 -8.04,7.95 -16.93,22.69 -0.64,36.58 -16.34,57.61 -5.98,8 -17.08,14.81 -27.56,14.81 -8.61,0 -13.43,-0.34 -21.31,-4.71 -8.91,-4.94 -15.74,-13.98 -18.17,-24.2 -3.49,-14.73 4.26,-26.97 -11.7,-45.9 -8.29,-9.84 -20.73,-14.02 -33.93,-14.02l0 -5.94 19.32 0c3.41,0 6.85,-1.87 8.66,-3.61 1.17,-1.14 1.86,-2.13 2.63,-3.69 4.21,-8.5 -2.13,-18.35 -12.03,-18.35l-18.58 0 0 -14.49zm-6.32 15.24c-2.99,0.69 -6.32,4.51 -6.32,8.17l0 7.81c0,3.73 3.3,7.47 6.32,8.17 0,17.8 -0.79,25.64 4.78,42.43 1,3.02 2.26,5.52 3.34,8.17 1.85,4.54 5.87,11.08 8.81,14.98l11.03 12.38c6.83,6.02 8.18,7.62 17.03,12.72 7.42,4.28 12.99,6.17 21.12,8.61 16.5,4.93 38.41,3.55 54.15,-2.81 1.53,-0.62 2.94,-1.04 4.25,-1.69 6.04,-3.03 5.04,-2.31 11.4,-6.07 3.68,-2.18 14.39,-10.5 16.53,-13.21 1.1,-1.4 1.59,-1.86 2.83,-3.12 6.73,-6.79 14.44,-20.51 17.51,-29.69 1.89,-5.64 3.78,-12.73 4.44,-19.34 0.73,-7.22 0.44,-15.56 0.44,-23.36 3.01,-0.7 6.31,-4.44 6.31,-8.17l0 -7.81c0,-3.66 -3.32,-7.48 -6.31,-8.17 0,-5.34 0.39,-12.34 -0.01,-17.47 -0.34,-4.28 -4.38,-8.55 -8.91,-8.55l-159.82 0c-4.32,0 -8.55,3.9 -8.92,8.55 -0.4,5.12 0,12.14 0,17.47z"/>
 </g>
</svg>
