<?xml version="1.0" encoding="UTF-8"?>
<!DOCTYPE svg PUBLIC "-//W3C//DTD SVG 1.1//EN" "http://www.w3.org/Graphics/SVG/1.1/DTD/svg11.dtd">
<!-- Creator: CorelDRAW 2020 (64 Bit) -->
<svg xmlns="http://www.w3.org/2000/svg" xml:space="preserve" width="100px" height="100px" version="1.1" style="shape-rendering:geometricPrecision; text-rendering:geometricPrecision; image-rendering:optimizeQuality; fill-rule:evenodd; clip-rule:evenodd"
viewBox="0 0 100 100"
 xmlns:xlink="http://www.w3.org/1999/xlink"
 xmlns:xodm="http://www.corel.com/coreldraw/odm/2003">
 <defs>
  <style type="text/css">
   <![CDATA[
    .fil1 {fill:#FEFEFE}
    .fil0 {fill:#253D4A}
   ]]>
  </style>
 </defs>
 <g id="Camada_x0020_1">
  <metadata id="CorelCorpID_0Corel-Layer"/>
  <circle class="fil0" cx="48.62" cy="49.36" r="47.52"/>
  <g id="_2187074772176">
   <g id="_2294968054768">
    <path class="fil1" d="M16.71 33.06c-0.03,-0.27 -0.2,-0.63 -0.29,-0.93 -0.25,-0.92 -0.32,-2.52 0.08,-3.2 0.37,1.85 0.4,3.13 1.48,4.56 0.65,0.86 1.21,1.45 2,2.22l2.96 2.53c0.87,0.54 1.12,0.79 2.32,1.36 8.01,3.81 17.66,-0.96 26.1,1.66 2.39,0.74 4.24,2.07 5.72,3.99 2.4,3.09 1.92,7.74 -1.3,10.17 -0.54,0.41 -2.51,1.72 -3.09,1.7 0.1,-0.04 0.82,-1.02 0.99,-1.29 2.99,-4.45 0.77,-8.35 -4.17,-10.14 -2.9,-1.05 -5.34,-0.88 -8.55,-1.09 -7.23,-0.47 -14.85,-1.6 -20.82,-5.81 -2.33,-1.64 -4.5,-3.88 -5.57,-6.56 -1.09,-2.7 -0.77,-5.49 0.01,-8.24 0.21,1.47 -0.71,3.74 0.94,7.33 0.2,0.43 0.96,1.51 1.19,1.74l0 0z"/>
    <path class="fil1" d="M77.36 40.95c-0.49,-0.26 -0.8,-0.54 -1.57,-0.51 -0.29,0.02 -1.48,0.26 -1.7,0.37 0.63,0.31 1.87,0.04 2.56,-0.06 -0.14,0.34 -0.79,0.81 -1.16,0.97 -0.61,0.26 -1.25,0.23 -1.93,0.27 -0.27,0.32 -0.71,1.38 -1.71,2.13 -0.21,0.17 -0.53,0.44 -0.71,0.65 -0.84,0.94 -1.19,2.57 -1.06,4.25 0.24,3.45 1.33,5.78 0.66,9.48 -1.01,5.43 -5.6,9.52 -9.6,11.59 -9.08,4.7 -17.82,0.65 -26,5.78 -1.17,0.74 -2.14,1.49 -2.98,2.31 -0.43,0.42 -0.82,0.88 -1.25,1.39 -0.37,0.43 -0.81,1.01 -1.14,1.49 0.1,-1.21 1,-4.42 1.39,-5.64 0.6,-1.83 1.31,-3.48 2.16,-4.98 0.87,-1.58 1.85,-2.9 3.05,-4.07 0.91,-0.89 2.85,-2.39 4.35,-2.84 -0.06,0.06 -0.05,0.07 -0.13,0.12l-0.83 0.6c-0.5,0.38 -0.92,0.73 -1.35,1.17 -0.68,0.71 -0.45,0.38 -1.18,1.4 -0.42,0.62 -2.25,3.98 -1.56,4.87 0.7,0.88 4.64,-0.05 5.78,-0.25 5.02,-0.82 8.37,-0.06 12.75,-0.7 2.55,-0.37 5.3,-1.34 7.33,-2.72 0.7,-0.47 1.28,-0.9 1.91,-1.48 3.9,-3.62 6.38,-8.33 5.83,-14.26 -0.19,-2.11 -0.54,-4.03 0.11,-6.07 0.64,-2.04 1.78,-2.71 2.31,-4.42 1.27,-4.11 -2.6,-5.05 -4.89,-4.21 -3,1.1 -2.99,4.87 -3.65,6.46 -0.4,0.97 -0.78,1.44 -1.38,2.03 -0.39,0.4 -1.44,1.21 -2,1.4 0.1,-0.22 0.71,-0.89 0.95,-1.17 0.26,-0.35 0.62,-0.9 0.85,-1.32 1.52,-2.74 0.43,-3.24 2.31,-6.32 0.6,-0.97 1.16,-1.61 2.15,-2.2 2.38,-1.41 5.52,-0.8 7,1.2 0.15,0.21 0.28,0.48 0.45,0.64 0.81,0.79 2.24,0.78 3,1.34 0.37,0.28 0.71,0.71 0.89,1.31l-0.01 0z"/>
    <path class="fil1" d="M58.82 47.6c0.32,-0.94 0.64,-1.45 0.51,-2.68 -0.08,-0.95 -0.43,-1.84 -0.83,-2.52 -0.94,-1.62 -2.16,-2.75 -3.55,-3.92 -3.08,-2.56 -8.74,-4.98 -11.6,-7.4 -3.04,-2.55 -6.59,-7.7 -5.95,-12.06 0.04,-0.29 0.33,-1.21 0.33,-1.27 0.05,0.6 -0.27,1.19 -0.03,2.54 0.11,0.64 0.41,1.73 0.73,2.12 -0.08,-1.8 -0.31,-2.71 0.38,-4.41 0.49,-1.21 1.36,-2.13 2.25,-2.73 -0.21,0.76 -0.56,1.09 -0.84,2.51 -0.7,3.49 0.66,7.1 2.87,9.61 0.93,1.06 0.98,1.14 2.11,2.24 1.46,1.4 4.37,3.33 6.14,4.19 1.45,0.7 3.22,1.48 4.49,2.43 0.66,0.48 1.4,1.06 1.86,1.6 1.05,1.23 1.89,2.49 2.39,4.55 0.23,0.98 0.31,2.06 0.09,3.08 -0.2,0.91 -0.76,1.82 -1.35,2.12l0 0z"/>
    <path class="fil1" d="M23.36 71.67c-0.98,0.06 -4.12,-0.25 -5.55,-0.31 -2,-0.09 -1.78,0.64 -0.78,1.8 1.08,1.24 3.42,0.5 4.96,0.35 -0.3,0.3 -2.09,1.44 -1.76,2.7 0.64,0.35 2.36,-0.53 2.98,-0.81 2.29,-1.03 4.57,-2.18 6.87,-3.18 0.39,-0.17 1.06,-0.51 1.45,-0.6 -0.27,0.25 -2.11,1.22 -2.7,1.6 -1.17,0.75 -1.45,0.97 -2.52,1.76 -0.21,0.16 -0.33,0.27 -0.56,0.46 -1.27,1.04 -2.93,2.46 -4.17,3.36 -0.69,0.51 -1.97,1.22 -3.11,1.22 -1.35,-0.01 -2.18,-0.89 -2.7,-1.6 -0.96,-1.28 -0.34,-1.93 0.81,-2.51 0.47,-0.23 0.99,-0.49 1.49,-0.68l1.52 -0.68c-0.18,0.01 -1.97,0.56 -2.71,0.7 -1.26,0.24 -2.03,-0.11 -2.58,-0.8 -0.22,-0.29 -4.07,-7.35 1.06,-5.06 0.79,0.36 1.6,0.72 2.43,1.04 1.71,0.66 3.68,0.9 5.57,1.24l0 0z"/>
    <path class="fil1" d="M48.69 53.76c0.18,-0.24 0.65,-0.37 0.94,-1.03 0.61,-1.35 -0.72,-2.84 -2.17,-3.42 -1.9,-0.76 -4.59,-0.78 -6.77,-1.11 -5.11,-0.76 -7.65,-1.5 -12.21,-3.57l3.39 0.99c3.7,0.94 8.43,1.12 12.28,1.17 2.82,0.05 5.63,0.22 6.99,1.95 1.51,1.91 0.76,4.77 -2.45,5.02l0 0z"/>
    <path class="fil1" d="M13.6 65.6c0.33,0.11 1.6,0.69 2.47,0.97 0.9,0.29 1.82,0.57 2.75,0.78 5.18,1.17 11.65,1.45 16.43,-1.24 0.41,-0.23 0.73,-0.5 1.09,-0.67l-1.88 2.07c-1.2,1.55 -0.44,1.18 -2.2,1.73 -5.05,1.59 -11.73,0.64 -16.35,-1.96 -0.69,-0.39 -1.93,-1.22 -2.31,-1.68l0 0z"/>
    <path class="fil1" d="M28.22 48.68c-1.12,-0.03 -5.31,-0.58 -6.54,-0.77 -2.02,-0.32 -4,-0.77 -5.76,-1.49 -2.84,-1.18 -4.91,-3.09 -4.79,-6.16 0.03,-0.88 0.32,-2.42 0.71,-3.01 0.37,3.12 1.37,5 3.7,6.69 3.25,2.36 8.29,3.44 12.32,4.58l0.36 0.16z"/>
    <path class="fil1" d="M26.49 53.43c1.76,0 3.51,-0.25 5.18,-0.73 0.52,-0.14 1.03,-0.36 1.49,-0.48 -0.95,0.84 -4.19,1.61 -5.53,1.87 -3.73,0.74 -9.25,0.51 -12.17,-1.98 -0.74,-0.63 -1.12,-1.04 -1.64,-2.1 -0.38,-0.73 -0.73,-2.11 -0.6,-3.07 0.34,0.41 0.76,0.99 1.08,1.3 0.29,0.28 0.41,0.39 0.62,0.6 0.66,0.63 1.24,1.16 2.04,1.7 2.67,1.8 5.96,2.89 9.53,2.89l0 0z"/>
    <path class="fil1" d="M40.93 38.13c-1.19,0.05 -3.84,-0.8 -4.99,-1.41 -1.21,-0.64 -2.66,-2.05 -3.1,-3.37 0.48,0.45 1,1.02 1.73,1.41 0.48,0.27 1.75,0.77 2.32,0.86 -1.01,-0.75 -1.26,-0.7 -2.18,-1.81 -1.47,-1.75 -1.94,-3.82 -1.71,-6.2 0.07,-0.8 0.39,-2.76 0.68,-3.37 0.28,1.64 0.07,2.4 0.66,4.64 0.59,2.25 1.85,4.27 3.36,5.87l1.93 2.09c0.2,0.23 0.42,0.41 0.65,0.63 0.24,0.24 0.43,0.45 0.65,0.66l0 0z"/>
    <path class="fil1" d="M27.33 81.03c0.01,0.2 -0.29,1.33 -0.38,1.59 -0.2,0.55 -0.46,0.83 -1.2,0.83 -1.06,-0.01 -2.59,-0.35 -3.25,-0.9 -1.17,-1 0.82,-3.08 1.58,-3.89 0.33,-0.37 0.64,-0.79 1,-1.13 -0.25,0.67 -1.37,2.12 -1.15,2.91 0.25,0.93 1.7,0.79 2.6,-0.22 0.62,-0.69 1.18,-1.5 1.76,-2.31 0.47,-0.66 1.36,-1.89 1.89,-2.21 -0.37,1.85 -1.06,2.41 -0.91,5.17 0.05,0.96 0.46,1.86 -0.77,2.01 -1.07,0.13 -1.03,-0.93 -1.17,-1.85z"/>
    <path class="fil1" d="M28.53 57.14c1.01,0 1.38,-0.22 2.17,-0.36 -0.39,0.27 -1.27,0.74 -1.2,1.32 0.85,0.66 3.36,-0.22 4.21,-0.57 0.61,-0.25 1.23,-0.52 1.75,-0.84l1.61 -1.02 -1.19 1.04c-2.14,1.61 -5.06,3.87 -8.02,3.11 -0.99,-0.26 -2.26,-1.22 -2.58,-1.97 0.21,-0.06 0.47,-0.15 0.64,-0.31 -1,-0.09 -2.17,-0.45 -2.77,-0.98 -1.17,-1.04 0.86,-1.32 1.74,-1.19 -0.32,0.11 -0.61,0.56 -0.23,0.84 0.23,0.18 0.76,0.37 1.09,0.48 0.74,0.23 1.94,0.45 2.78,0.45z"/>
    <path class="fil1" d="M25.51 43.69c-0.33,-0.04 -0.91,-0.26 -1.27,-0.37 -5.53,-1.77 -12.88,-3.16 -12.14,-10.54 0.08,-0.74 0.33,-2.41 0.67,-2.87 0.06,3.85 0.67,7.17 3.9,9.37 2.32,1.59 5.09,2.69 7.72,3.89 0.26,0.12 0.95,0.47 1.12,0.52l0 0z"/>
    <path class="fil1" d="M42.84 33.26c-0.92,-0.43 -3.24,-2.01 -4.06,-2.71 -1.78,-1.51 -3.37,-3.21 -3.76,-5.75 -0.22,-1.51 0.2,-3.37 0.82,-4.49 0.32,1.4 0.22,2.34 0.79,4.18 0.75,2.46 2.05,4.46 3.78,6.19l0.87 0.97c0.13,0.12 0.24,0.19 0.36,0.32 0.39,0.41 0.87,0.88 1.2,1.29l0 0z"/>
    <path class="fil1" d="M41.2 62.95l0.08 -0.08c0.25,-0.22 0.96,-0.59 1.24,-1.02 -0.87,0.35 -1.39,0.74 -2.59,0.74 -0.86,0 -2,-0.33 -2.49,-0.79 2.51,0.38 4.15,-0.39 5.81,-1.53 1.88,-1.27 2.52,-2.21 3.74,-3.84 0,1.3 -1.02,3.7 -1.64,4.44 -0.93,1.1 -2.03,1.97 -4.15,2.08l0 0z"/>
    <path class="fil1" d="M30.86 59.97c2.85,2.37 6.67,0.27 9.13,-1.75l2.27 -2.09c-0.24,0.53 -0.67,1.07 -0.99,1.48l-0.54 0.68c-0.76,0.96 -2.22,2.26 -3.35,2.96 -0.92,0.57 -2.42,1.26 -3.82,1.01 -1.26,-0.22 -2.59,-1.56 -2.7,-2.29l0 0z"/>
    <path class="fil1" d="M82.45 52.62c-0.34,-0.29 -0.7,-0.74 -1.02,-1.1 -1.25,-1.43 -1.53,-2.94 -0.2,-4.4 1.11,0.15 2.06,0.95 2.18,2.1 0.11,0.88 -0.5,2.94 -0.96,3.4z"/>
    <path class="fil1" d="M77.34 48.52c-1.72,-1.71 -1.53,-5.27 0.84,-5.27 0.89,0 1.54,1.65 0.74,2.64 -0.84,1.02 -1.21,0.81 -1.58,2.63z"/>
    <path class="fil1" d="M86.12 42.77c-0.03,0.02 -0.03,0.03 -0.12,0.09 -0.53,0.27 -0.47,0.08 -1.14,0.76 -0.3,0.3 -0.67,0.7 -1.29,0.81 -1.15,0.19 -2.5,-0.53 -3.01,-1.12 0.29,-0.83 1.38,-1.61 2.5,-1.64 1.13,-0.03 2.35,0.58 3.06,1.1l0 0z"/>
    <path class="fil1" d="M39.46 39.57c-1.38,0.28 -2.92,0.15 -3.96,-0.51 -0.71,-0.45 -1.71,-1.79 -1.67,-3.06 0.6,0.51 0.94,1.23 2.41,2.19 0.46,0.3 0.97,0.55 1.52,0.78 0.39,0.15 1.46,0.45 1.7,0.6l0 0z"/>
    <path class="fil1" d="M81.19 46.76c-0.26,-1.22 -1.3,-2.94 -2.41,-3.71 -0.75,-0.5 -1.64,-1 -2.42,-1.39 0.17,-0.19 0.35,-0.31 0.5,-0.55 0.98,0.12 2.32,1.39 2.94,2.06 0.62,0.66 1.47,2.29 1.39,3.59l0 0z"/>
    <path class="fil1" d="M69.55 38.46c1.12,0.47 0.51,2.21 -0.69,1.81 -1.15,-0.38 -0.59,-2.34 0.69,-1.81z"/>
   </g>
  </g>
 </g>
</svg>
