<?xml version="1.0" encoding="UTF-8"?>
<!DOCTYPE svg PUBLIC "-//W3C//DTD SVG 1.1//EN" "http://www.w3.org/Graphics/SVG/1.1/DTD/svg11.dtd">
<!-- Creator: CorelDRAW 2020 (64 Bit) -->
<svg xmlns="http://www.w3.org/2000/svg" xml:space="preserve" width="50px" height="50px" version="1.1" style="shape-rendering:geometricPrecision; text-rendering:geometricPrecision; image-rendering:optimizeQuality; fill-rule:evenodd; clip-rule:evenodd"
viewBox="0 0 50 50"
 xmlns:xlink="http://www.w3.org/1999/xlink"
 xmlns:xodm="http://www.corel.com/coreldraw/odm/2003">
 <defs>
  <style type="text/css">
   <![CDATA[
    .fil0 {fill:#FEFEFE}
   ]]>
  </style>
 </defs>
 <g id="Camada_x0020_1">
  <metadata id="CorelCorpID_0Corel-Layer"/>
  <g id="_2186584480800">
   <g id="_2294968054768">
    <path class="fil0" d="M6.29 14.13c-0.02,-0.17 -0.13,-0.39 -0.18,-0.58 -0.16,-0.58 -0.2,-1.58 0.05,-2.01 0.23,1.16 0.25,1.97 0.93,2.86 0.4,0.54 0.75,0.91 1.25,1.39l1.85 1.58c0.55,0.34 0.7,0.5 1.45,0.85 5.01,2.39 11.05,-0.6 16.33,1.04 1.5,0.47 2.66,1.3 3.59,2.5 1.5,1.93 1.2,4.84 -0.82,6.37 -0.33,0.25 -1.57,1.07 -1.94,1.06 0.07,-0.03 0.52,-0.64 0.63,-0.81 1.87,-2.78 0.48,-5.22 -2.61,-6.35 -1.81,-0.65 -3.34,-0.54 -5.35,-0.68 -4.53,-0.29 -9.3,-1 -13.03,-3.63 -1.46,-1.03 -2.82,-2.43 -3.49,-4.11 -0.68,-1.69 -0.48,-3.43 0.01,-5.15 0.13,0.92 -0.45,2.34 0.59,4.58 0.13,0.27 0.6,0.95 0.74,1.09l0 0z"/>
    <path class="fil0" d="M44.25 19.07c-0.31,-0.16 -0.5,-0.34 -0.99,-0.32 -0.18,0.01 -0.92,0.16 -1.06,0.23 0.4,0.19 1.17,0.02 1.6,-0.03 -0.08,0.21 -0.49,0.5 -0.73,0.6 -0.38,0.16 -0.78,0.15 -1.2,0.17 -0.17,0.2 -0.45,0.86 -1.07,1.33 -0.13,0.11 -0.33,0.28 -0.45,0.41 -0.52,0.59 -0.74,1.61 -0.66,2.66 0.15,2.16 0.84,3.62 0.41,5.93 -0.63,3.4 -3.5,5.96 -6,7.26 -5.69,2.94 -11.16,0.4 -16.27,3.61 -0.74,0.46 -1.34,0.93 -1.87,1.45 -0.27,0.26 -0.51,0.54 -0.78,0.87 -0.23,0.26 -0.51,0.63 -0.71,0.93 0.05,-0.76 0.62,-2.77 0.87,-3.53 0.37,-1.14 0.82,-2.18 1.34,-3.12 0.55,-0.98 1.17,-1.81 1.92,-2.55 0.56,-0.55 1.77,-1.49 2.72,-1.77 -0.04,0.03 -0.04,0.04 -0.08,0.07l-0.52 0.38c-0.31,0.24 -0.58,0.45 -0.85,0.73 -0.42,0.45 -0.28,0.24 -0.73,0.88 -0.27,0.39 -1.41,2.49 -0.98,3.04 0.44,0.56 2.9,-0.03 3.61,-0.15 3.15,-0.51 5.24,-0.04 7.98,-0.44 1.6,-0.23 3.32,-0.84 4.59,-1.7 0.44,-0.29 0.8,-0.57 1.19,-0.93 2.45,-2.26 4,-5.21 3.66,-8.92 -0.12,-1.33 -0.34,-2.53 0.07,-3.8 0.4,-1.28 1.11,-1.7 1.44,-2.77 0.79,-2.57 -1.63,-3.15 -3.07,-2.63 -1.87,0.69 -1.86,3.05 -2.27,4.04 -0.26,0.61 -0.5,0.9 -0.87,1.28 -0.25,0.24 -0.9,0.75 -1.25,0.87 0.06,-0.14 0.44,-0.56 0.59,-0.74 0.17,-0.21 0.39,-0.55 0.53,-0.82 0.96,-1.72 0.27,-2.03 1.45,-3.95 0.38,-0.61 0.73,-1.01 1.34,-1.38 1.5,-0.88 3.46,-0.5 4.39,0.75 0.09,0.13 0.17,0.3 0.28,0.4 0.5,0.49 1.4,0.49 1.88,0.84 0.23,0.18 0.44,0.44 0.55,0.82l0 0z"/>
    <path class="fil0" d="M32.64 23.23c0.21,-0.59 0.4,-0.9 0.33,-1.68 -0.06,-0.59 -0.28,-1.15 -0.53,-1.58 -0.59,-1.01 -1.35,-1.72 -2.22,-2.45 -1.92,-1.6 -5.47,-3.12 -7.26,-4.63 -1.9,-1.59 -4.12,-4.81 -3.72,-7.55 0.02,-0.17 0.21,-0.75 0.21,-0.79 0.03,0.38 -0.17,0.74 -0.02,1.59 0.07,0.4 0.25,1.09 0.46,1.33 -0.06,-1.13 -0.2,-1.7 0.23,-2.76 0.31,-0.76 0.85,-1.33 1.41,-1.71 -0.13,0.47 -0.35,0.68 -0.53,1.57 -0.43,2.18 0.42,4.44 1.8,6.02 0.58,0.66 0.61,0.71 1.32,1.39 0.91,0.88 2.73,2.09 3.84,2.63 0.91,0.44 2.02,0.92 2.81,1.51 0.42,0.31 0.88,0.67 1.17,1.01 0.65,0.77 1.18,1.56 1.49,2.84 0.15,0.62 0.2,1.29 0.06,1.94 -0.12,0.56 -0.48,1.13 -0.85,1.32l0 0z"/>
    <path class="fil0" d="M10.45 38.29c-0.61,0.04 -2.58,-0.15 -3.47,-0.19 -1.25,-0.06 -1.11,0.4 -0.48,1.12 0.67,0.78 2.14,0.32 3.09,0.23 -0.18,0.18 -1.3,0.9 -1.09,1.69 0.4,0.21 1.47,-0.34 1.86,-0.51 1.43,-0.65 2.86,-1.37 4.3,-1.99 0.25,-0.11 0.67,-0.33 0.91,-0.38 -0.18,0.16 -1.33,0.77 -1.69,1 -0.73,0.47 -0.91,0.61 -1.58,1.11 -0.13,0.09 -0.21,0.16 -0.35,0.28 -0.79,0.65 -1.83,1.54 -2.61,2.1 -0.43,0.32 -1.23,0.77 -1.94,0.77 -0.85,-0.01 -1.37,-0.56 -1.7,-1.01 -0.6,-0.8 -0.21,-1.2 0.51,-1.56 0.3,-0.15 0.62,-0.31 0.93,-0.43l0.96 -0.43c-0.12,0.01 -1.24,0.35 -1.7,0.44 -0.79,0.15 -1.27,-0.07 -1.61,-0.5 -0.14,-0.18 -2.55,-4.6 0.66,-3.16 0.49,0.22 1,0.45 1.52,0.65 1.07,0.41 2.3,0.56 3.48,0.77l0 0z"/>
    <path class="fil0" d="M26.3 27.08c0.12,-0.14 0.41,-0.23 0.59,-0.64 0.38,-0.84 -0.45,-1.78 -1.36,-2.14 -1.18,-0.48 -2.87,-0.49 -4.23,-0.69 -3.2,-0.48 -4.79,-0.94 -7.64,-2.24l2.12 0.62c2.32,0.59 5.27,0.7 7.68,0.74 1.77,0.03 3.53,0.13 4.38,1.22 0.94,1.19 0.48,2.98 -1.54,3.13l0 0z"/>
    <path class="fil0" d="M4.35 34.5c0.2,0.06 0.99,0.43 1.54,0.6 0.57,0.18 1.14,0.36 1.72,0.49 3.24,0.73 7.29,0.91 10.28,-0.78 0.26,-0.14 0.46,-0.31 0.69,-0.41l-1.18 1.29c-0.75,0.97 -0.28,0.74 -1.38,1.08 -3.16,1 -7.34,0.4 -10.23,-1.22 -0.43,-0.25 -1.21,-0.77 -1.44,-1.05l0 0z"/>
    <path class="fil0" d="M13.5 23.91c-0.7,-0.02 -3.33,-0.37 -4.1,-0.49 -1.26,-0.2 -2.5,-0.48 -3.6,-0.93 -1.78,-0.74 -3.07,-1.93 -3,-3.86 0.02,-0.54 0.2,-1.51 0.44,-1.88 0.24,1.95 0.86,3.13 2.32,4.19 2.03,1.47 5.18,2.15 7.71,2.87l0.23 0.1z"/>
    <path class="fil0" d="M12.41 26.88c1.1,0 2.2,-0.16 3.24,-0.46 0.33,-0.09 0.65,-0.23 0.94,-0.3 -0.6,0.53 -2.62,1.01 -3.46,1.17 -2.34,0.47 -5.79,0.32 -7.62,-1.24 -0.46,-0.39 -0.7,-0.65 -1.03,-1.31 -0.23,-0.46 -0.45,-1.32 -0.37,-1.93 0.21,0.26 0.47,0.63 0.68,0.82 0.17,0.17 0.25,0.25 0.38,0.38 0.42,0.39 0.78,0.72 1.28,1.06 1.67,1.12 3.73,1.81 5.96,1.81l0 0z"/>
    <path class="fil0" d="M21.45 17.31c-0.74,0.02 -2.4,-0.5 -3.13,-0.89 -0.75,-0.4 -1.66,-1.28 -1.93,-2.11 0.29,0.28 0.62,0.64 1.08,0.89 0.3,0.16 1.09,0.47 1.45,0.53 -0.63,-0.47 -0.79,-0.44 -1.37,-1.13 -0.92,-1.09 -1.21,-2.39 -1.06,-3.88 0.04,-0.5 0.24,-1.73 0.42,-2.11 0.17,1.03 0.05,1.51 0.42,2.9 0.36,1.41 1.15,2.68 2.1,3.68l1.21 1.3c0.12,0.15 0.26,0.26 0.4,0.4 0.15,0.15 0.27,0.28 0.41,0.42l0 0z"/>
    <path class="fil0" d="M12.94 44.15c0,0.12 -0.18,0.83 -0.24,0.99 -0.13,0.35 -0.29,0.53 -0.75,0.53 -0.67,-0.01 -1.62,-0.23 -2.03,-0.57 -0.74,-0.62 0.51,-1.92 0.98,-2.43 0.21,-0.23 0.4,-0.5 0.63,-0.71 -0.16,0.42 -0.86,1.33 -0.72,1.82 0.16,0.58 1.07,0.49 1.63,-0.14 0.39,-0.43 0.74,-0.94 1.1,-1.44 0.29,-0.42 0.85,-1.18 1.18,-1.39 -0.23,1.16 -0.66,1.51 -0.57,3.24 0.03,0.6 0.29,1.16 -0.48,1.26 -0.67,0.08 -0.64,-0.58 -0.73,-1.16z"/>
    <path class="fil0" d="M13.69 29.2c0.63,0 0.86,-0.13 1.36,-0.22 -0.25,0.16 -0.8,0.46 -0.75,0.82 0.53,0.42 2.1,-0.14 2.63,-0.35 0.38,-0.16 0.77,-0.33 1.09,-0.53l1.02 -0.64 -0.75 0.65c-1.34,1.01 -3.17,2.42 -5.02,1.95 -0.62,-0.16 -1.41,-0.77 -1.62,-1.24 0.14,-0.03 0.3,-0.09 0.4,-0.19 -0.62,-0.05 -1.35,-0.28 -1.72,-0.61 -0.74,-0.65 0.53,-0.83 1.08,-0.75 -0.2,0.07 -0.38,0.35 -0.14,0.53 0.14,0.11 0.47,0.23 0.68,0.3 0.46,0.15 1.21,0.28 1.74,0.28z"/>
    <path class="fil0" d="M11.8 20.78c-0.2,-0.02 -0.57,-0.16 -0.8,-0.23 -3.46,-1.11 -8.06,-1.97 -7.59,-6.59 0.05,-0.47 0.2,-1.51 0.42,-1.8 0.03,2.41 0.42,4.49 2.44,5.86 1.45,1 3.19,1.69 4.83,2.44 0.16,0.07 0.59,0.29 0.7,0.32l0 0z"/>
    <path class="fil0" d="M22.64 14.26c-0.57,-0.28 -2.02,-1.26 -2.54,-1.7 -1.11,-0.94 -2.11,-2.01 -2.35,-3.6 -0.14,-0.94 0.13,-2.11 0.52,-2.81 0.19,0.88 0.13,1.47 0.49,2.62 0.47,1.54 1.28,2.79 2.36,3.87l0.55 0.61c0.08,0.07 0.15,0.12 0.22,0.2 0.24,0.25 0.55,0.55 0.75,0.81l0 0z"/>
    <path class="fil0" d="M21.62 32.84l0.04 -0.05c0.16,-0.14 0.61,-0.37 0.79,-0.64 -0.55,0.22 -0.87,0.46 -1.62,0.46 -0.54,0 -1.25,-0.2 -1.57,-0.5 1.57,0.25 2.6,-0.24 3.64,-0.95 1.18,-0.8 1.58,-1.38 2.34,-2.41 0,0.82 -0.63,2.32 -1.03,2.79 -0.58,0.68 -1.27,1.23 -2.59,1.3l0 0z"/>
    <path class="fil0" d="M15.15 30.97c1.78,1.48 4.17,0.17 5.71,-1.09l1.42 -1.31c-0.15,0.33 -0.42,0.67 -0.62,0.92l-0.34 0.43c-0.47,0.6 -1.38,1.41 -2.09,1.85 -0.58,0.36 -1.52,0.79 -2.39,0.64 -0.79,-0.14 -1.62,-0.98 -1.69,-1.44l0 0z"/>
    <path class="fil0" d="M47.43 26.37c-0.21,-0.18 -0.44,-0.46 -0.63,-0.68 -0.79,-0.9 -0.96,-1.85 -0.13,-2.76 0.69,0.09 1.29,0.6 1.36,1.31 0.07,0.56 -0.31,1.85 -0.6,2.13z"/>
    <path class="fil0" d="M44.24 23.81c-1.08,-1.07 -0.96,-3.3 0.52,-3.3 0.56,0 0.96,1.03 0.46,1.65 -0.53,0.64 -0.76,0.51 -0.98,1.65z"/>
    <path class="fil0" d="M49.73 20.21c-0.02,0.01 -0.02,0.02 -0.08,0.05 -0.33,0.17 -0.29,0.05 -0.71,0.48 -0.19,0.19 -0.42,0.44 -0.81,0.51 -0.72,0.12 -1.56,-0.33 -1.88,-0.7 0.18,-0.52 0.86,-1.01 1.56,-1.03 0.71,-0.02 1.48,0.36 1.92,0.69l0 0z"/>
    <path class="fil0" d="M20.53 18.2c-0.87,0.18 -1.83,0.1 -2.48,-0.32 -0.45,-0.28 -1.07,-1.11 -1.04,-1.91 0.37,0.32 0.58,0.77 1.5,1.37 0.29,0.19 0.61,0.35 0.96,0.49 0.24,0.09 0.91,0.28 1.06,0.37l0 0z"/>
    <path class="fil0" d="M46.64 22.71c-0.16,-0.77 -0.81,-1.85 -1.51,-2.33 -0.46,-0.31 -1.02,-0.62 -1.51,-0.87 0.11,-0.11 0.22,-0.19 0.31,-0.34 0.62,0.07 1.46,0.87 1.84,1.29 0.39,0.41 0.92,1.43 0.87,2.25l0 0z"/>
    <path class="fil0" d="M39.36 17.51c0.7,0.29 0.32,1.38 -0.44,1.13 -0.71,-0.23 -0.36,-1.46 0.44,-1.13z"/>
   </g>
  </g>
 </g>
</svg>
