<?xml version="1.0" encoding="UTF-8"?>
<!DOCTYPE svg PUBLIC "-//W3C//DTD SVG 1.1//EN" "http://www.w3.org/Graphics/SVG/1.1/DTD/svg11.dtd">
<!-- Creator: CorelDRAW 2020 (64 Bit) -->
<svg xmlns="http://www.w3.org/2000/svg" xml:space="preserve" width="50px" height="50px" version="1.1" style="shape-rendering:geometricPrecision; text-rendering:geometricPrecision; image-rendering:optimizeQuality; fill-rule:evenodd; clip-rule:evenodd"
viewBox="0 0 50 50"
 xmlns:xlink="http://www.w3.org/1999/xlink"
 xmlns:xodm="http://www.corel.com/coreldraw/odm/2003">
 <defs>
  <style type="text/css">
   <![CDATA[
    .fil0 {fill:#253d4a}
   ]]>
  </style>
 </defs>
 <g id="Camada_x0020_1">
  <metadata id="CorelCorpID_0Corel-Layer"/>
  <g id="_2295351584704">
   <path class="fil0" d="M8.13 34.05l0 -17.15c0,-5.77 3.95,-9.72 9.72,-9.72l17.15 0c5.78,0 9.72,3.95 9.72,9.72l0 17.15c0,5.76 -3.94,9.72 -9.72,9.72l-17.15 0c-5.76,0 -9.72,-3.94 -9.72,-9.72zm-3.66 -18.29l0 19.44c0,6.3 5.93,12.23 12.24,12.23l19.44 0c6.32,0 12.23,-5.94 12.23,-12.23l0 -19.44c0,-6.31 -5.91,-12.24 -12.23,-12.24l-19.44 0c-2.37,0 -5.01,1.01 -6.83,2.32 -3.05,2.19 -5.41,5.99 -5.41,9.92z"/>
   <path class="fil0" d="M20.02 25.48c0,-5.35 6.71,-8.68 10.9,-4.49 1.82,1.82 2.45,4.62 1.3,7.08 -2.35,5.03 -9.23,5.03 -11.59,0 -0.27,-0.58 -0.61,-1.81 -0.61,-2.59zm-3.66 -0.58c0,3.18 0.71,5.45 2.95,7.69 1.59,1.6 4.05,2.95 6.55,2.95 3.17,0 5.44,-0.71 7.68,-2.95 1.6,-1.59 2.95,-4.05 2.95,-6.54 0,-3.18 -0.71,-5.45 -2.95,-7.69 -0.91,-0.92 -1.51,-1.34 -2.73,-1.96 -4.81,-2.42 -10.86,-0.47 -13.46,4.69 -0.49,0.99 -0.99,2.39 -0.99,3.81z"/>
   <path class="fil0" d="M35.57 13.35c0,3.99 5.49,3.99 5.49,0 0,-1.39 -1.2,-2.51 -2.97,-2.51 -1.26,0 -2.52,1.26 -2.52,2.51z"/>
  </g>
 </g>
</svg>
