<?xml version="1.0" encoding="UTF-8"?>
<!DOCTYPE svg PUBLIC "-//W3C//DTD SVG 1.1//EN" "http://www.w3.org/Graphics/SVG/1.1/DTD/svg11.dtd">
<!-- Creator: CorelDRAW 2020 (64 Bit) -->
<svg xmlns="http://www.w3.org/2000/svg" xml:space="preserve" width="30px" height="30px" version="1.1" style="shape-rendering:geometricPrecision; text-rendering:geometricPrecision; image-rendering:optimizeQuality; fill-rule:evenodd; clip-rule:evenodd"
viewBox="0 0 30 30"
 xmlns:xlink="http://www.w3.org/1999/xlink"
 xmlns:xodm="http://www.corel.com/coreldraw/odm/2003">
 <defs>
  <style type="text/css">
   <![CDATA[
    .fil0 {fill:#253D4A}
   ]]>
  </style>
 </defs>
 <g id="Camada_x0020_1">
  <metadata id="CorelCorpID_0Corel-Layer"/>
  <g id="_2065832224128">
   <path class="fil0" d="M10.96 10.93c0,-2.2 1.67,-3.87 3.87,-3.87 2.02,0 3.72,1.67 3.72,3.87 0,3.23 -4.05,5.02 -6.47,2.61 -0.58,-0.59 -1.12,-1.5 -1.12,-2.61zm3.58 18.97c0.57,0 1,-0.01 1.41,-0.53 0.25,-0.32 0.45,-0.55 0.7,-0.87 1,-1.28 1.8,-2.29 2.73,-3.64 0.78,-1.12 1.9,-2.73 2.51,-3.86 2.06,-3.78 4.17,-7.57 3.39,-12.15 -0.44,-2.63 -2.16,-5.24 -4.35,-6.75 -1.02,-0.7 -2.01,-1.24 -3.29,-1.57 -1.42,-0.36 -2.8,-0.51 -4.26,-0.29 -1.11,0.16 -2.71,0.58 -3.65,1.15 -2,1.22 -2.83,1.94 -4.09,3.85l-0.57 1.01c-1.16,2.74 -1.37,5.19 -0.49,8.05 0.88,2.84 2.52,6.06 4.19,8.56 1.13,1.68 3.53,5.11 4.75,6.42 0.19,0.19 0.16,0.23 0.41,0.38 0.15,0.1 0.41,0.24 0.61,0.24l0 0z"/>
  </g>
 </g>
</svg>
