<?xml version="1.0" encoding="UTF-8"?>
<!DOCTYPE svg PUBLIC "-//W3C//DTD SVG 1.1//EN" "http://www.w3.org/Graphics/SVG/1.1/DTD/svg11.dtd">
<!-- Creator: CorelDRAW 2020 (64 Bit) -->
<svg xmlns="http://www.w3.org/2000/svg" xml:space="preserve" width="200px" height="210px" version="1.1" style="shape-rendering:geometricPrecision; text-rendering:geometricPrecision; image-rendering:optimizeQuality; fill-rule:evenodd; clip-rule:evenodd"
viewBox="0 0 200 210"
 xmlns:xlink="http://www.w3.org/1999/xlink"
 xmlns:xodm="http://www.corel.com/coreldraw/odm/2003">
 <defs>
  <style type="text/css">
   <![CDATA[
    .fil0 {fill:#a7c4d2}
   ]]>
  </style>
 </defs>
 <g id="Camada_x0020_1">
  <metadata id="CorelCorpID_0Corel-Layer"/>
  <g id="_2606991645584">
   <path class="fil0" d="M133.42 171.84c-9.92,0 -13.48,-2.76 -20.08,-7.17l43.3 -43.49c0.94,1.36 1.81,2.47 2.75,3.89 8.14,12.31 4.97,29.7 -6.49,39.35 -0.97,0.82 -1.05,1 -2.19,1.76 -1.73,1.14 -2.84,1.86 -4.73,2.8 -3.09,1.52 -7.92,2.86 -12.56,2.86zm27.26 -54.15l21.16 0 0 21.51c0,3.26 -0.84,6.07 -1.73,8.31 -1.62,4.03 -3.77,6.35 -6.6,8.83 -1.64,1.43 -4.06,3.06 -6.23,3.81 -1.24,0.42 -3.17,0.85 -4.09,1.29 0.42,-1.57 8.97,-13.49 5.24,-28.2 -1.24,-4.88 -3.06,-9.4 -5.95,-13.41 -0.66,-0.9 -1.19,-1.24 -1.8,-2.14zm-51.19 43.12c-0.58,-0.82 -0.81,-0.91 -1.38,-1.67l-3.43 -5.89c-3.47,-8.7 -3.44,-16.86 0.41,-25.52 0.6,-1.34 1.76,-3.27 2.66,-4.52 1.4,-1.93 5.19,-5.98 7.09,-7.25 7.46,-5 11.16,-5.8 20.02,-5.8 3.57,0 7.65,1.16 10.17,2.38 5.99,2.91 3.4,1.87 7.76,4.79l-43.3 43.48zm-67.87 -106.6l45.9 0 0 4.66 -45.9 0 0 -4.66zm44.11 -29.05l12.55 0 0 23.67 -12.55 0 0 -23.67zm-18.65 0l13.27 0 0 23.67 -13.27 0 0 -23.67zm-18.65 0l13.27 0 0 23.67 -13.27 0 0 -23.67zm-22.95 -2.51c0,2.8 -0.71,7.53 2.51,7.53 3.26,0 2.87,-3.03 2.87,-5.02l12.19 0 0 23.67 -12.19 0c0,-4.5 1.01,-10.76 -2.51,-10.76 -1.74,0 -2.87,1.14 -2.87,2.87l0 10.4c0,3.95 5.08,2.87 10.76,2.87l0 4.66c-7.23,0 -12.36,-0.85 -17.36,4.16l-1.02 1.13c-1.63,1.94 -2.78,4.41 -2.78,7.26l0 93.25c0,3.43 2.06,6.93 3.84,8.71 1.83,1.82 5.55,3.84 9.07,3.84l43.03 0c2.95,0 5.81,-5.46 -2.14,-5.39l-39.46 0.02c-5.49,0.03 -8.96,-3.58 -8.96,-6.83l0 -93.24c0,-4.4 4.1,-7.53 8.61,-7.53l71 0c4.96,0 8.61,3.65 8.61,8.61l0 40.52c0,0.82 -4.61,5.43 -6.08,7.91 -4.06,6.83 -5.17,10.19 -5.82,18.59 -0.41,5.29 1,11.6 3.05,15.71l3.46 6.22c1.36,1.88 3.19,3.24 4.31,5.37 -0.48,2.09 -2.38,3.48 -4.41,4.19 -2.35,0.83 -13.45,0.48 -16.75,0.47 -2.9,-0.01 -6.09,-0.32 -6.09,2.51 0,1.73 1.13,2.87 2.87,2.87l17.93 0c2.57,0 4.93,-0.99 6.51,-2.09 1.49,-1.04 3.77,-2.93 4.25,-4.73 25.43,17.03 45.23,-2.71 46.08,-3.04 0.39,-0.16 5.54,-0.3 9.82,-1.66 9.63,-3.06 19.41,-13.48 19.41,-26.14l0 -49.49c0,-9.61 -5.57,-17.75 -12.91,-22.95 -1.95,-1.39 -6.28,-3.59 -9.33,-3.59 -1.01,0 -2.15,1.5 -2.15,2.51 0,2.75 4.44,3.26 6.47,4.3 1.03,0.53 2.35,1.38 3.27,2.11 5.53,4.35 9.27,10.5 9.27,17.98l0 21.52 -26.18 0c-1.52,0 -2.43,-1.13 -4.54,-2.28 -4.57,-2.48 -10.08,-4.89 -15.9,-4.89 0,-14.26 -1.79,-27.18 13.62,-34.8 4.17,-2.06 7.89,-1.39 7.89,-4.29 0,-6.78 -13.19,0 -18.43,5.23 -11.6,11.58 -7.4,23.4 -8.43,32.82 -0.29,2.67 -4.71,0.7 -11.87,4.26 -1.23,0.61 -2.53,1.47 -3.94,1.8 0,-10.76 0,-21.52 0,-32.28 0,-6.72 0.02,-9.27 -2.86,-13.28 -4.46,-6.19 -11.41,-5.37 -18.3,-5.37l0 -4.66c7.07,0 10.76,1.3 10.76,-3.94l0 -26.54c0,-2.14 -0.69,-3.95 -2.87,-3.95l-72.44 0c-1.74,0 -2.87,1.14 -2.87,2.87z"/>
   <path class="fil0" d="M65.29 143.51c-10.91,0 -19.15,-5.34 -23.65,-14.01 -8.07,-15.51 2.99,-36.92 22.57,-36.92 8.21,0 13.75,3.29 18.12,7.34 0.8,0.74 2.38,2.6 2.98,3.49 7.18,10.62 5.86,23.32 -2.53,32.48 -4.02,4.39 -11.22,7.62 -17.49,7.62zm-31.56 -27.26c0,6.11 0.17,9.58 2.86,15.07 1.55,3.16 2.81,4.97 5.1,7.45l0.86 0.94c0.05,0.05 0.13,0.12 0.18,0.17 1.33,1.28 2.33,2.2 3.85,3.33 15.42,11.38 38.53,4.99 46.07,-12.51 6.15,-14.28 1.61,-28.9 -10.45,-37.82 -20.28,-14.99 -48.47,1.78 -48.47,23.37z"/>
   <path class="fil0" d="M61.7 105.49l0 10.04 -10.76 0c-2.5,0 -3.4,5.38 1.08,5.38l9.68 0 0 9.69c0,4.01 5.38,4.19 5.38,0.36l0 -10.05c6.43,0 12.91,1.23 12.91,-2.86 0,-1.68 -0.84,-2.52 -2.51,-2.52l-10.4 0 0 -10.4c0,-3.6 -5.38,-3.36 -5.38,0.36z"/>
  </g>
 </g>
</svg>
