<?xml version="1.0" encoding="UTF-8"?>
<!DOCTYPE svg PUBLIC "-//W3C//DTD SVG 1.1//EN" "http://www.w3.org/Graphics/SVG/1.1/DTD/svg11.dtd">
<!-- Creator: CorelDRAW 2020 (64 Bit) -->
<svg xmlns="http://www.w3.org/2000/svg" xml:space="preserve" width="1600px" height="1600px" version="1.1" style="shape-rendering:geometricPrecision; text-rendering:geometricPrecision; image-rendering:optimizeQuality; fill-rule:evenodd; clip-rule:evenodd"
viewBox="0 0 1600 1600"
 xmlns:xlink="http://www.w3.org/1999/xlink"
 xmlns:xodm="http://www.corel.com/coreldraw/odm/2003">
 <defs>
  <style type="text/css">
   <![CDATA[
    .fil0 {fill:#253D4A}
   ]]>
  </style>
 </defs>
 <g id="Camada_x0020_1">
  <metadata id="CorelCorpID_0Corel-Layer"/>
  <path class="fil0" d="M506.28 1023.23c0,-21.19 0.36,-31.47 20.26,-50.05 9.99,-9.33 26.07,-14.63 44.43,-14.63l466.86 0c37.77,0 64.68,27.23 64.68,50.62l0 14.06c0,27.79 -25.65,53.44 -53.43,53.44l-489.36 0c-28.75,0 -53.44,-24.69 -53.44,-53.44zm275.41 -964.65l49.67 0c51,1.72 101.86,8.75 151.38,21.33 64.12,16.29 130.11,43.67 185.02,76.54 52.45,31.41 80.47,52.51 123.85,92.7 39.13,36.25 48.23,45.43 84.09,90.28 92.03,115.07 143.6,264.61 148.67,416.46l0 49.66c-1.72,50.99 -8.75,101.85 -21.33,151.35 -16.3,64.14 -43.66,130.1 -76.54,185.02 -11.44,19.1 -22.05,35.55 -34.29,52.89 -6.46,9.15 -11.6,16.88 -19.05,25.95 -6.73,8.18 -12.63,14.71 -19.14,23.04 -44.9,57.47 -124.85,120.82 -188.01,157.92 -18.4,10.81 -37.14,21.62 -57.06,30.13 -42.95,18.33 -78.75,33.48 -128.46,45.91 -80.2,20.04 -118.2,20.75 -197.59,20.77l-3.81 0c-99.08,0 -214.68,-34.64 -281.29,-67.45 -73.53,-36.22 -98.81,-56.14 -158.65,-102.91 -25.78,-20.14 -45.46,-43.03 -65.54,-63.83l-30.54 -34.14c-3.84,-4.89 -6.34,-8.73 -9.56,-12.94 -3.86,-5.04 -5.99,-6.88 -10.11,-12.39 -21.79,-29.07 -58.23,-88.82 -72.29,-121.76 -53.94,-126.33 -66.69,-189.79 -66.69,-329.87 0,-99.07 34.64,-214.67 67.46,-281.28 19.72,-40.05 40.08,-74.76 64.7,-109.66 6.46,-9.15 11.61,-16.88 19.06,-25.95 44.25,-53.83 74.87,-85.31 129.63,-129.1 115.09,-92.04 264.6,-143.6 416.42,-148.67zm-275.41 725.6c0,-38.87 21.52,-64.69 56.25,-64.69l483.73 0c74.37,0 74.37,118.13 0,118.13l-483.73 0c-28.14,0 -56.25,-24.98 -56.25,-53.44zm0 -236.24c0,-34.24 12.62,-67.5 53.44,-67.5l489.36 0c51.35,0 73.33,69.31 33.01,103.33 -11.09,9.36 -24.99,14.79 -44.26,14.79l-466.86 0c-36.93,0 -64.69,-27.25 -64.69,-50.62z"/>
 </g>
</svg>
