<?xml version="1.0" encoding="UTF-8"?>
<!DOCTYPE svg PUBLIC "-//W3C//DTD SVG 1.1//EN" "http://www.w3.org/Graphics/SVG/1.1/DTD/svg11.dtd">
<!-- Creator: CorelDRAW 2020 (64 Bit) -->
<svg xmlns="http://www.w3.org/2000/svg" xml:space="preserve" width="2480px" height="3508px" version="1.1" style="shape-rendering:geometricPrecision; text-rendering:geometricPrecision; image-rendering:optimizeQuality; fill-rule:evenodd; clip-rule:evenodd"
viewBox="0 0 2480 3507.43"
 xmlns:xlink="http://www.w3.org/1999/xlink"
 xmlns:xodm="http://www.corel.com/coreldraw/odm/2003">
 <defs>
  <style type="text/css">
   <![CDATA[
    .fil0 {fill:#253d4a}
   ]]>
  </style>
 </defs>
 <g id="Camada_x0020_1">
  <metadata id="CorelCorpID_0Corel-Layer"/>
  <path class="fil0" d="M838.23 2139.05c0,-23.54 0.39,-34.96 22.5,-55.6 11.1,-10.36 28.96,-16.25 49.36,-16.25l518.61 0c41.96,0 71.86,30.25 71.86,56.23l0 15.62c0,30.87 -28.49,59.36 -59.36,59.36l-543.61 0c-31.93,0 -59.36,-27.43 -59.36,-59.36zm305.94 -1071.6l55.17 0c56.66,1.91 113.16,9.72 168.18,23.7 71.22,18.09 144.53,48.51 205.52,85.02 58.27,34.89 89.39,58.33 137.58,102.98 43.47,40.27 53.58,50.47 93.42,100.29 102.22,127.82 159.52,293.95 165.15,462.63l0 55.16c-1.91,56.65 -9.72,113.14 -23.69,168.14 -18.11,71.24 -48.51,144.52 -85.03,205.52 -12.71,21.22 -24.5,39.5 -38.09,58.76 -7.18,10.17 -12.89,18.75 -21.17,28.82 -7.47,9.09 -14.03,16.35 -21.26,25.6 -49.88,63.84 -138.69,134.22 -208.85,175.43 -20.44,12.01 -41.25,24.02 -63.39,33.47 -47.71,20.37 -87.48,37.19 -142.7,50.99 -89.09,22.27 -131.31,23.06 -219.5,23.08l-4.23 0c-110.07,0 -238.47,-38.48 -312.47,-74.93 -81.69,-40.24 -109.76,-62.36 -176.24,-114.31 -28.64,-22.38 -50.5,-47.81 -72.81,-70.91l-33.92 -37.93c-4.27,-5.43 -7.05,-9.69 -10.63,-14.37 -4.28,-5.6 -6.64,-7.65 -11.23,-13.76 -24.2,-32.29 -64.68,-98.67 -80.3,-135.27 -59.92,-140.33 -74.08,-210.83 -74.08,-366.43 0,-110.06 38.48,-238.47 74.93,-312.47 21.91,-44.48 44.53,-83.04 71.88,-121.82 7.17,-10.16 12.89,-18.75 21.17,-28.82 49.16,-59.8 83.17,-94.77 144.01,-143.42 127.85,-102.24 293.93,-159.52 462.58,-165.15zm-305.94 806.04c0,-43.18 23.91,-71.85 62.48,-71.85l537.37 0c82.61,0 82.61,131.22 0,131.22l-537.37 0c-31.26,0 -62.48,-27.75 -62.48,-59.37zm0 -262.43c0,-38.03 14.02,-74.98 59.36,-74.98l543.61 0c57.05,0 81.46,77 36.68,114.78 -12.33,10.4 -27.77,16.44 -49.18,16.44l-518.61 0c-41.02,0 -71.86,-30.28 -71.86,-56.24z"/>
 </g>
</svg>
