<?xml version="1.0" encoding="UTF-8"?>
<!DOCTYPE svg PUBLIC "-//W3C//DTD SVG 1.1//EN" "http://www.w3.org/Graphics/SVG/1.1/DTD/svg11.dtd">
<!-- Creator: CorelDRAW 2020 (64 Bit) -->
<svg xmlns="http://www.w3.org/2000/svg" xml:space="preserve" width="40px" height="40px" version="1.1" style="shape-rendering:geometricPrecision; text-rendering:geometricPrecision; image-rendering:optimizeQuality; fill-rule:evenodd; clip-rule:evenodd"
viewBox="0 0 40 40"
 xmlns:xlink="http://www.w3.org/1999/xlink"
 xmlns:xodm="http://www.corel.com/coreldraw/odm/2003">
 <defs>
  <style type="text/css">
   <![CDATA[
    .fil0 {fill:#253D4A}
   ]]>
  </style>
 </defs>
 <g id="Camada_x0020_1">
  <metadata id="CorelCorpID_0Corel-Layer"/>
  <g id="_2030252306576">
   <path class="fil0" d="M32.77 11.59c-5.12,0.52 -3.28,-0.56 -8.62,4.77 -0.81,0.82 -2.2,2.84 -4.09,2.48 -1.41,-0.27 -5.2,-4.8 -6.91,-6.27 -1.52,-1.31 -4.91,-1.11 -5.41,-0.74l-3.28 3.29c-3,2.98 -2.87,6.16 0.08,9.11 3.48,3.46 2.71,3.78 6.51,3.4 3.23,-0.33 6.61,-6.88 9.16,-7.21 1.83,-0.23 3.21,1.75 4.02,2.56 5.28,5.28 3.43,4.18 8.54,4.69 1.57,-1.96 5.64,-4.36 5.65,-8.04 0,-3.67 -4.08,-6.08 -5.65,-8.04z"/>
   <path class="fil0" d="M9.71 29.18c0.37,0.87 4.04,4.26 4.7,4.91 1.2,1.2 3.01,3.59 5.79,3.59 3.19,0 4.64,-2.12 6.2,-3.67 0.67,-0.68 4.23,-3.94 4.61,-4.83 -3.41,0 -4.26,-1.6 -5.82,-3.15 -5.43,-5.43 -3.67,-5.43 -9.38,0.28 -1.73,1.73 -2.39,2.87 -6.1,2.87z"/>
   <path class="fil0" d="M9.71 10.09c3.71,0 4.37,1.14 6.1,2.87 5.71,5.7 3.93,5.73 9.38,0.28 1.55,-1.55 2.42,-3.15 5.82,-3.15 -0.38,-0.9 -4.02,-4.24 -4.69,-4.91 -1.29,-1.29 -2.98,-3.6 -5.96,-3.6 -3.24,0 -5.77,3.41 -8.28,5.92 -0.44,0.44 -0.76,0.77 -1.2,1.2 -0.64,0.64 -0.88,0.71 -1.17,1.39z"/>
  </g>
 </g>
</svg>
