<?xml version="1.0" encoding="UTF-8"?>
<!DOCTYPE svg PUBLIC "-//W3C//DTD SVG 1.1//EN" "http://www.w3.org/Graphics/SVG/1.1/DTD/svg11.dtd">
<!-- Creator: CorelDRAW 2020 (64 Bit) -->
<svg xmlns="http://www.w3.org/2000/svg" xml:space="preserve" width="200px" height="210px" version="1.1" style="shape-rendering:geometricPrecision; text-rendering:geometricPrecision; image-rendering:optimizeQuality; fill-rule:evenodd; clip-rule:evenodd"
viewBox="0 0 200 210"
 xmlns:xlink="http://www.w3.org/1999/xlink"
 xmlns:xodm="http://www.corel.com/coreldraw/odm/2003">
 <defs>
  <style type="text/css">
   <![CDATA[
    .fil0 {fill:#253D4A}
   ]]>
  </style>
 </defs>
 <g id="Camada_x0020_1">
  <metadata id="CorelCorpID_0Corel-Layer"/>
  <g id="_2570983661616">
   <path class="fil0" d="M64.97 118.77c-2.24,0 -1.24,-0.06 -1.92,-0.76l-7.29 -8.83c0,-1.45 21.53,-22.89 23.51,-24.85 1.8,-1.8 2.97,-3.36 4.79,-5.18 7.95,-7.93 6.36,-7.96 15.45,-7.96 5.05,0 6.71,1.71 9.86,3.57 14.33,8.47 11.79,11.6 26.52,1.72 1.04,-0.7 1.78,-1.1 2.84,-1.77 0.99,-0.61 1.74,-1.25 2.76,-1.84 3.39,-1.92 6.96,-1.68 10.98,-1.68 5.56,0 7.01,3.76 11.22,7.96l7.3 7.28c1.08,1.08 1.33,1.66 2.29,2.7 3.1,3.35 6.42,6.26 9.61,9.58l4.6 5c1.55,1.55 3.76,3.4 4.89,5.08 -0.32,1.21 -0.99,1.96 -1.82,2.79 -7.99,8.06 -3.9,9.27 -13.69,3.52l-13.88 -8c-3.11,-1.83 -9.42,-6.54 -11.71,-1.03 -1.09,2.64 0.45,58.57 -0.64,61.92 -0.44,1.36 -0.49,1.26 -1.59,1.85l-19.38 7.49c-5.65,2.19 -7.22,0.32 -15.05,-2.29l-14.89 -5.07c-2.29,-0.75 -2.55,-1.11 -2.54,-3.97 0,-7.19 0.58,-56.74 -0.39,-59.49 -1.45,-4.1 -4.79,-3.54 -7.82,-1.72l-24.01 13.98zm36.84 -59.86l0 6.52c-8.14,0 -11.31,-0.79 -16.4,4.32l-22.24 22.66c-9.78,11.7 -18.8,13.77 -9.62,23.58 0.82,0.87 1.12,1.09 1.83,2.01 2.08,2.73 5.19,6.53 8.83,6.53 3.79,0 4.06,-0.82 8.04,-3.09l12.51 -7.44c1.7,-1.02 4.95,-3.27 6.69,-3.67l0 33 -41.06 0c-2.3,0 -1.53,-4.67 -1.53,-8.44l0 -59.87c0.06,-10.1 -6,-6.89 -10.25,-1.8 -1.11,1.32 -1.47,1.82 -2.71,3.05l-11.33 11.7c-1.22,1.28 -1.26,2.33 -2.96,2.79 -0.57,-2.12 -13.6,-14.72 -14.2,-17.27 1.23,-1.84 15.4,-15.64 18.92,-19.84 2.7,-3.24 6.56,-6.46 9.58,-9.61l4.6 -4.99c3.88,-3.93 5.4,-3.17 12.18,-3.17 1.79,0 1.66,2.39 2.01,4.13 2.39,11.65 12.82,32.76 26.84,21.65 5.62,-4.46 11.68,-18.73 11.83,-25.4 3.34,-0.77 7.27,-0.38 10.75,-0.38 4.79,0 6.4,2.76 8.92,5.28 1.23,1.23 2.25,2.18 3.46,3.44 0.82,0.85 0.84,1.07 1.55,1.91l16 16.62c-0.41,1.51 -8.64,10.28 -9.98,12.28l-13.7 -15.08c-1.27,-1.53 -3.04,-4.49 -5.49,-4.49 -1.85,0 -3.07,1.21 -3.07,3.07zm-100.16 14.58c0,4.22 1.7,4.4 4.06,7.45l9.86 11.25c3.95,4.06 5.78,7.4 12.66,0.58l4.8 -5.18c2.69,-2.69 8.1,-8.94 10.07,-10.26l0 59.48c0,3.49 -0.31,6.57 1,8.97 1.17,2.13 3.54,3.31 6.67,3.31l40.68 0 0 18.8c0,6.33 6.41,7.58 10.32,8.88 4.65,1.55 17.62,6.29 21.95,7.23 4.21,0.91 10.81,-2.38 14.82,-3.94 2.57,-1 4.68,-1.71 7.24,-2.74 5.03,-2.03 9.46,-2.59 10.65,-8.54 0.68,-3.42 0.26,-52.48 0.26,-58.45 1.3,0.3 10.72,6.02 12.78,7.17 3.84,2.14 10.21,7.03 14.47,7.03 3.85,0 6.26,-3.75 8.17,-6.03 3,-3.56 6.03,-5.38 6.03,-9.71 0,-3.53 -3.24,-5.62 -6.82,-9.68 -0.91,-1.04 -1.87,-1.88 -2.87,-2.88l-21.88 -22.65c-8.67,-8.64 -7.79,-8.15 -21.01,-8.15 0,-3.17 0.79,-9.59 -3.07,-9.59 -1.82,0 -3.44,1.21 -3.84,2.68 -1.85,-0.15 -1.08,-0.27 -2.22,-1.61 -2.54,-3.02 -7.46,-7.08 -11.32,-11.71 -0.67,-0.8 -1.34,-1.38 -2.09,-2.12l-9.73 -9.85c-5.06,-4.21 -10.83,-3.11 -18.77,-3.11 -8.43,0 -6.01,8.97 -11.25,19.46 -1.03,2.07 -3.34,5.61 -4.99,7.28 -8.29,8.42 -15.62,-9.84 -17.49,-16.41 -2.45,-8.59 -0.49,-10.33 -13.09,-10.33 -8.07,0 -10.15,3.82 -14.29,7.97 -0.94,0.94 -1.83,1.71 -2.68,2.69 -1.08,1.22 -1.47,1.85 -2.69,3.06 -1.96,1.94 -3.62,3.62 -5.57,5.57l-13.63 14c-1.17,1.16 -1.54,1.94 -2.67,3.08 -1.89,1.91 -4.52,3.41 -4.52,7z"/>
   <path class="fil0" d="M121.77 113.78c0,-1.45 2.69,-2 2.69,0.39 0,1.94 -2.69,1.31 -2.69,-0.39zm-2.69 -0.76c0,3.34 0.73,4.98 4.99,4.98 3.58,0 4.97,-8.01 -0.82,-8.22 -0.75,-0.03 -1.96,0.24 -2.71,0.85 -0.44,0.35 -1.46,1.74 -1.46,2.39z"/>
   <path class="fil0" d="M121.77 156.38c0,-1.03 0.55,-1.13 1.15,-1.54 2.16,0.58 2.16,2.5 0,3.08 -0.6,-0.4 -1.15,-0.51 -1.15,-1.54zm-2.69 -0.38c0,6.12 8.06,6.16 8.06,0 0,-4.98 -8.06,-5.02 -8.06,0z"/>
   <path class="fil0" d="M121.77 92.68c0,-1.03 0.55,-1.14 1.15,-1.54 2.16,0.58 2.16,2.49 0,3.07 -0.6,-0.4 -1.15,-0.51 -1.15,-1.53zm-2.69 -0.39c0,6.87 8.06,4.64 8.06,1.54 0,-8.17 -8.06,-5.63 -8.06,-1.54z"/>
   <path class="fil0" d="M121.77 135.27c0,-1.5 2.69,-2.72 2.69,0 0,1.64 -2.69,1.64 -2.69,0zm-2.69 -0.38c0,6.18 8.06,5.25 8.06,0.77 0,-6.74 -8.06,-5.38 -8.06,-0.77z"/>
  </g>
 </g>
</svg>
