<?xml version="1.0" encoding="UTF-8"?>
<!DOCTYPE svg PUBLIC "-//W3C//DTD SVG 1.1//EN" "http://www.w3.org/Graphics/SVG/1.1/DTD/svg11.dtd">
<!-- Creator: CorelDRAW 2020 (64 Bit) -->
<svg xmlns="http://www.w3.org/2000/svg" xml:space="preserve" width="200px" height="200px" version="1.1" style="shape-rendering:geometricPrecision; text-rendering:geometricPrecision; image-rendering:optimizeQuality; fill-rule:evenodd; clip-rule:evenodd"
viewBox="0 0 200 200"
 xmlns:xlink="http://www.w3.org/1999/xlink"
 xmlns:xodm="http://www.corel.com/coreldraw/odm/2003">
 <defs>
  <style type="text/css">
   <![CDATA[
    .fil0 {fill:#253D4A}
   ]]>
  </style>
 </defs>
 <g id="Camada_x0020_1">
  <metadata id="CorelCorpID_0Corel-Layer"/>
  <path class="fil0" d="M27.64 61.31c0,9.4 1.68,14.9 5.09,23.36 4.48,11.14 12,22.12 19.47,31.51 0.46,0.57 0.88,1.16 1.38,1.69l9.09 10.13c8.06,8.01 16.68,15.44 26.15,21.76 11.07,7.38 27.77,15.83 41.82,15.83 7.64,0 11.67,-2.48 16.47,-7.1 0.64,-0.62 1.11,-1.22 1.8,-1.79l4.83 -5.16c2.89,-3.7 4.84,-7.64 5.08,-11.88l0 -1.77c-0.1,-1.75 -0.49,-3.54 -1.24,-5.39 -0.66,-1.64 -1.28,-2.55 -2.27,-3.88 -1.9,-2.55 -3.76,-4.29 -6.33,-6.22 -3.42,-2.55 -3.72,-2.77 -7.58,-4.72 -17.36,-8.76 -28.42,7.48 -31.04,8.93 -6.22,3.44 -22.12,-12.77 -25.65,-16.29 -4.13,-4.14 -17.1,-16.84 -17.1,-23.64 0,-2.37 1.38,-2.82 2.45,-4.21 3.07,-3.97 6.52,-7.2 6.52,-14.24 0,-8.78 -9.69,-22.34 -15.37,-26.65 -9.41,-7.14 -15.9,-4.19 -23.55,2.85l-0.8 0.73c-0.34,0.28 -0.47,0.32 -0.83,0.71l-5.63 6.16c-1.51,2.28 -2.76,5.58 -2.76,9.28z"/>
 </g>
</svg>
