<?xml version="1.0" encoding="UTF-8"?>
<!DOCTYPE svg PUBLIC "-//W3C//DTD SVG 1.1//EN" "http://www.w3.org/Graphics/SVG/1.1/DTD/svg11.dtd">
<!-- Creator: CorelDRAW 2020 (64 Bit) -->
<svg xmlns="http://www.w3.org/2000/svg" xml:space="preserve" width="50px" height="50px" version="1.1" style="shape-rendering:geometricPrecision; text-rendering:geometricPrecision; image-rendering:optimizeQuality; fill-rule:evenodd; clip-rule:evenodd"
viewBox="0 0 50 50"
 xmlns:xlink="http://www.w3.org/1999/xlink"
 xmlns:xodm="http://www.corel.com/coreldraw/odm/2003">
 <defs>
  <style type="text/css">
   <![CDATA[
    .fil0 {fill:#253d4a}
   ]]>
  </style>
 </defs>
 <g id="Camada_x0020_1">
  <metadata id="CorelCorpID_0Corel-Layer"/>
  <path class="fil0" d="M4.38 4.81c0,1.58 0.87,2.03 1.92,3.08 1.42,1.42 16.15,16.05 16.45,16.49 -0.33,0.49 -14.8,14.84 -16.4,16.44 -1.06,1.06 -1.97,1.54 -1.97,3.13 0,1.48 1.17,2.5 2.85,2.5 1.15,0 2.1,-1.28 2.74,-1.92 1.41,-1.42 16.04,-16.15 16.49,-16.44 0.49,0.33 14.84,14.8 16.44,16.4 1.06,1.06 1.54,1.96 3.13,1.96 1.48,0 2.5,-1.17 2.5,-2.84 0,-1.15 -1.29,-2.1 -1.92,-2.74 -1.42,-1.42 -16.15,-16.05 -16.45,-16.49 0.33,-0.49 13.01,-13.06 14.08,-14.12 0.79,-0.8 1.53,-1.53 2.32,-2.33 1.06,-1.06 1.97,-1.53 1.97,-3.12 0,-1.48 -1.17,-2.5 -2.85,-2.5 -1.15,0 -2.1,1.28 -2.74,1.92l-15.26 15.26c-0.35,0.35 -0.85,0.93 -1.22,1.18 -0.5,-0.33 -14.85,-14.8 -16.45,-16.4 -1.06,-1.06 -1.54,-1.96 -3.13,-1.96 -1.33,0 -2.5,1.16 -2.5,2.5z"/>
 </g>
</svg>
